<svg width="24" height="24" viewBox="0 0 24 24" fill="none" xmlns="http://www.w3.org/2000/svg">
<path d="M5.25 6C4.83579 6 4.5 6.33579 4.5 6.75C4.5 7.16421 4.83579 7.5 5.25 7.5H14.25C14.6642 7.5 15 7.16421 15 6.75C15 6.33579 14.6642 6 14.25 6H5.25Z" fill="#0263E0"/>
<path d="M4.5 12C4.5 11.5858 4.83579 11.25 5.25 11.25H18.75C19.1642 11.25 19.5 11.5858 19.5 12C19.5 12.4142 19.1642 12.75 18.75 12.75H5.25C4.83579 12.75 4.5 12.4142 4.5 12Z" fill="#0263E0"/>
<path d="M5.25 16.5C4.83579 16.5 4.5 16.8358 4.5 17.25C4.5 17.6642 4.83579 18 5.25 18H17.25C17.6642 18 18 17.6642 18 17.25C18 16.8358 17.6642 16.5 17.25 16.5H5.25Z" fill="#0263E0"/>
<path fill-rule="evenodd" clip-rule="evenodd" d="M0 2.25C0 1.00736 1.00736 0 2.25 0H21.75C22.9926 0 24 1.00736 24 2.25V21.75C24 22.9926 22.9926 24 21.75 24H2.25C1.00736 24 0 22.9926 0 21.75V2.25ZM2.25 1.5H21.75C22.1642 1.5 22.5 1.83579 22.5 2.25V21.75C22.5 22.1642 22.1642 22.5 21.75 22.5H2.25C1.83579 22.5 1.5 22.1642 1.5 21.75V2.25C1.5 1.83579 1.83579 1.5 2.25 1.5Z" fill="#0263E0"/>
</svg>
