<svg width="14" height="14" viewBox="0 0 14 14" fill="none" xmlns="http://www.w3.org/2000/svg">
<path fill-rule="evenodd" clip-rule="evenodd" d="M1.37679 8.60893L7.90002 2.08759C7.90831 2.07799 7.917 2.06863 7.92611 2.05952C7.93526 2.05037 7.94466 2.04165 7.9543 2.03333L9.34244 0.645596C10.3147 -0.326351 11.7751 -0.198514 12.9872 1.01332C14.1977 2.22358 14.3196 3.67488 13.3478 4.64874L11.9402 6.05614L11.9316 6.06499L11.9227 6.07368L5.40147 12.5939C5.39363 12.6029 5.38542 12.6117 5.37685 12.6203C5.36826 12.6289 5.35944 12.6371 5.35041 12.645L5.08508 12.9103C5.01669 12.9787 4.93041 13.0264 4.83614 13.048L0.756389 13.9843C0.666038 14.0051 0.572179 14.0052 0.481765 13.9848C0.14886 13.9094 -0.0599516 13.5785 0.015371 13.2456L0.940296 9.1577C0.961768 9.0628 1.00968 8.97592 1.0785 8.90713L1.36557 8.62014C1.36739 8.61827 1.36923 8.6164 1.37108 8.61455C1.37297 8.61266 1.37487 8.61078 1.37679 8.60893ZM1.84654 9.81834L1.16416 12.8336L4.17128 12.1431L1.84654 9.81834ZM5.01139 11.5265L2.46316 8.97829L8.2911 3.15284L10.8388 5.70059L5.01139 11.5265ZM12.6191 3.92078L11.5673 4.97234L9.01959 2.42466L10.0707 1.37404C10.6096 0.835271 11.4235 0.906518 12.2589 1.74172L12.3907 1.88022C13.0975 2.66312 13.1294 3.40935 12.6191 3.92078Z" fill="#8891AA"/>
</svg>
