<svg width="10" height="10" viewBox="0 0 10 10" fill="none" xmlns="http://www.w3.org/2000/svg">
<path fill-rule="evenodd" clip-rule="evenodd" d="M0.983428 6.14918L5.64283 1.49113C5.64875 1.48427 5.65496 1.47758 5.66147 1.47108C5.668 1.46454 5.67472 1.45831 5.68161 1.45237L6.67313 0.461137C7.36758 -0.233106 8.41074 -0.141795 9.27649 0.723792C10.1411 1.58826 10.2282 2.6249 9.5341 3.32051L8.52865 4.32581L8.5225 4.3321L8.51616 4.33829L3.85817 8.99561C3.85257 9.00204 3.8467 9.00833 3.84058 9.01445C3.83445 9.02059 3.82815 9.02646 3.8217 9.03207L3.63218 9.22157C3.58332 9.27041 3.5217 9.30452 3.45436 9.31997L0.540274 9.98875C0.475738 10.0036 0.408697 10.0037 0.344115 9.98906C0.106328 9.93526 -0.0428223 9.69888 0.0109792 9.46109L0.671636 6.54117C0.686973 6.47339 0.721199 6.41133 0.770349 6.3622L0.975386 6.15722C0.976691 6.15588 0.978008 6.15454 0.979338 6.15321C0.980693 6.15185 0.982057 6.15051 0.983428 6.14918ZM1.31895 7.01305L0.831538 9.16677L2.97947 8.67358L1.31895 7.01305ZM3.57954 8.23317L1.75939 6.41302L5.92217 2.25202L7.74198 4.07182L3.57954 8.23317ZM9.01359 2.80054L8.26228 3.55165L6.44252 1.73189L7.19328 0.981451C7.57823 0.596618 8.15962 0.647509 8.75631 1.24408L8.85042 1.34301C9.35529 1.90221 9.3781 2.43523 9.01359 2.80054Z" fill="#606B85"/>
</svg>
