<svg width="14" height="20" viewBox="0 0 14 20" fill="none" xmlns="http://www.w3.org/2000/svg">
<path fill-rule="evenodd" clip-rule="evenodd" d="M6.59945 4.66659C5.49488 4.66659 4.59945 5.56202 4.59945 6.66659C4.59945 7.77115 5.49488 8.66659 6.59945 8.66659C7.70402 8.66659 8.59945 7.77115 8.59945 6.66659C8.59945 5.56202 7.70402 4.66659 6.59945 4.66659ZM3.26611 6.66659C3.26611 4.82564 4.7585 3.33325 6.59945 3.33325C8.4404 3.33325 9.93278 4.82564 9.93278 6.66659C9.93278 8.50753 8.4404 9.99992 6.59945 9.99992C4.7585 9.99992 3.26611 8.50753 3.26611 6.66659Z" fill="#606B85"/>
<path fill-rule="evenodd" clip-rule="evenodd" d="M6.59988 1.33333C3.05073 1.33333 0.078656 4.8692 1.87931 9.07072C2.86524 11.3712 4.18492 13.8469 5.26359 15.7553C5.79168 16.6896 6.25998 17.4844 6.59988 18.0514C6.93978 17.4844 7.40808 16.6896 7.93617 15.7553C9.01484 13.8469 10.3345 11.3712 11.3204 9.07072C13.1211 4.8692 10.149 1.33333 6.59988 1.33333ZM6.59988 19.3333C6.03455 19.6867 6.03451 19.6866 6.03447 19.6865L6.02423 19.6701L5.99521 19.6234C5.96982 19.5824 5.93253 19.522 5.88448 19.4437C5.78838 19.287 5.64923 19.0586 5.47613 18.7701C5.13002 18.1932 4.64787 17.3757 4.10284 16.4114C3.01484 14.4865 1.66785 11.9621 0.653782 9.59595C-1.54557 4.46414 2.14903 0 6.59988 0C11.0507 0 14.7453 4.46414 12.546 9.59595C11.5319 11.9621 10.1849 14.4865 9.09692 16.4114C8.55189 17.3757 8.06974 18.1932 7.72362 18.7701C7.55053 19.0586 7.41137 19.287 7.31528 19.4437C7.26723 19.522 7.22994 19.5824 7.20455 19.6234L7.17553 19.6701L7.16545 19.6863C7.1654 19.6864 7.16521 19.6867 6.59988 19.3333ZM6.59988 19.3333L7.16545 19.6863C7.04362 19.8812 6.82974 20 6.59988 20C6.37002 20 6.15629 19.8815 6.03447 19.6865L6.59988 19.3333Z" fill="#606B85"/>
</svg>
