<svg width="10" height="8" viewBox="0 0 10 8" fill="none" xmlns="http://www.w3.org/2000/svg">
<path fill-rule="evenodd" clip-rule="evenodd" d="M9.99136 3.90959L9.99826 3.95991L9.99816 4.04058L9.98713 4.11085L9.97802 4.13889C9.94549 4.25166 9.87146 4.34749 9.77332 4.41137L5.94096 7.85484C5.7257 8.04839 5.3767 8.04839 5.16144 7.85484C4.9701 7.6828 4.94884 7.41575 5.09766 7.2226L5.16144 7.15396L8.118 4.495L0.512681 4.4956C0.229535 4.4956 0 4.27371 0 4C0 3.7567 0.181361 3.55435 0.420526 3.51239L0.512681 3.5044L8.117 3.504L5.16144 0.846038C4.9701 0.674 4.94884 0.406948 5.09766 0.213795L5.16144 0.145157C5.35278 -0.0268809 5.6498 -0.0459963 5.86462 0.0878111L5.94096 0.145157L9.77332 3.58863C9.87146 3.65251 9.94549 3.74834 9.97947 3.86069L9.99136 3.90959Z" fill="#00D215"/>
</svg>
