<svg width="15" height="20" viewBox="0 0 15 20" fill="none" xmlns="http://www.w3.org/2000/svg">
<path fill-rule="evenodd" clip-rule="evenodd" d="M1.67332e-07 19.3745V2.49994C1.67332e-07 1.83691 0.263386 1.20104 0.732215 0.732215C1.20104 0.263386 1.83691 0 2.49994 0L12.4997 0C13.1627 0 13.7986 0.263386 14.2674 0.732215C14.7362 1.20104 14.9996 1.83691 14.9996 2.49994V19.3745C14.9997 19.4831 14.9715 19.5897 14.9179 19.6841C14.8642 19.7784 14.7869 19.8571 14.6935 19.9125C14.6002 19.9679 14.494 19.998 14.3855 19.9999C14.277 20.0018 14.1699 19.9754 14.0747 19.9233L7.49982 16.3359L0.924978 19.9233C0.829767 19.9754 0.722631 20.0018 0.614116 19.9999C0.505602 19.998 0.399449 19.9679 0.306107 19.9125C0.212766 19.8571 0.135452 19.7784 0.0817787 19.6841C0.028105 19.5897 -7.92403e-05 19.4831 1.67332e-07 19.3745ZM7.69981 5.12487C7.68154 5.08739 7.6531 5.0558 7.61774 5.0337C7.58238 5.0116 7.54152 4.99988 7.49982 4.99988C7.45812 4.99988 7.41726 5.0116 7.3819 5.0337C7.34653 5.0558 7.31809 5.08739 7.29982 5.12487L6.50734 6.73109C6.49148 6.76358 6.46793 6.79171 6.43875 6.81306C6.40956 6.8344 6.37562 6.84831 6.33985 6.85358L4.56489 7.11108C4.52403 7.11728 4.4857 7.13474 4.45421 7.1615C4.42271 7.18826 4.39929 7.22326 4.38657 7.26258C4.37385 7.30191 4.37234 7.344 4.3822 7.38413C4.39206 7.42427 4.4129 7.46086 4.44239 7.48982L5.72486 8.74104C5.77736 8.79229 5.80111 8.86603 5.78861 8.93853L5.48737 10.706C5.48057 10.7468 5.48529 10.7887 5.501 10.827C5.5167 10.8653 5.54277 10.8984 5.57627 10.9227C5.60977 10.947 5.64937 10.9614 5.69064 10.9644C5.7319 10.9674 5.77319 10.9589 5.80986 10.9397L7.39732 10.1048C7.42914 10.0881 7.46453 10.0794 7.50044 10.0794C7.53636 10.0794 7.57174 10.0881 7.60356 10.1048L9.19103 10.9397C9.22766 10.9585 9.26879 10.9668 9.30985 10.9636C9.35091 10.9605 9.39028 10.946 9.42358 10.9217C9.45688 10.8975 9.4828 10.8645 9.49846 10.8264C9.51412 10.7883 9.5189 10.7466 9.51227 10.706L9.20978 8.93728C9.2034 8.90176 9.20575 8.86522 9.21664 8.83082C9.22753 8.79641 9.24662 8.76517 9.27227 8.73979L10.5572 7.48857C10.5867 7.45961 10.6076 7.42302 10.6174 7.38288C10.6273 7.34275 10.6258 7.30066 10.6131 7.26133C10.6003 7.22201 10.5769 7.18701 10.5454 7.16025C10.5139 7.13349 10.4756 7.11603 10.4347 7.10983L8.65979 6.85233C8.62402 6.84706 8.59007 6.83315 8.56089 6.81181C8.5317 6.79046 8.50816 6.76233 8.49229 6.72984L7.69981 5.12487Z" fill="black"/>
</svg>
