<svg width="26" height="21" viewBox="0 0 26 21" fill="none" xmlns="http://www.w3.org/2000/svg">
<path fill-rule="evenodd" clip-rule="evenodd" d="M12.2304 0.209019C12.5207 -0.069673 12.9791 -0.069673 13.2693 0.209019L25.2692 11.7316C25.568 12.0185 25.5776 12.4933 25.2908 12.7921C25.0039 13.0909 24.5291 13.1005 24.2303 12.8136L12.7499 1.78977L1.26945 12.8136C0.970681 13.1005 0.495909 13.0909 0.20902 12.7921C-0.0778688 12.4933 -0.0682358 12.0185 0.230536 11.7316L12.2304 0.209019Z" fill="#606B85"/>
<path fill-rule="evenodd" clip-rule="evenodd" d="M4.44228 7.97737C4.85649 7.97737 5.19228 8.31315 5.19228 8.72736V19.5H9.74992C10.1641 19.5 10.4999 19.8358 10.4999 20.25C10.4999 20.6642 10.1641 21 9.74992 21H4.44228C4.02807 21 3.69229 20.6642 3.69229 20.25V8.72736C3.69229 8.31315 4.02807 7.97737 4.44228 7.97737ZM21.0575 7.97737C21.4717 7.97737 21.8075 8.31315 21.8075 8.72736V20.25C21.8075 20.4489 21.7285 20.6397 21.5878 20.7803C21.4472 20.921 21.2564 21 21.0575 21L15.7499 20.9999C15.3356 20.9999 14.9999 20.6641 14.9999 20.2499C14.9999 19.8357 15.3357 19.4999 15.7499 19.4999L20.3075 19.5V8.72736C20.3075 8.31315 20.6433 7.97737 21.0575 7.97737Z" fill="#606B85"/>
<path fill-rule="evenodd" clip-rule="evenodd" d="M11.2499 13.4999C10.8357 13.4999 10.4999 13.8357 10.4999 14.2499V20.25L8.99992 20.2498V14.2499C8.99992 13.0072 10.0073 11.9999 11.2499 11.9999H14.2499C15.4925 11.9999 16.4999 13.0072 16.4999 14.2499V20.2498L14.9999 20.2499L14.9999 14.2499C14.9999 13.8357 14.6641 13.4999 14.2499 13.4999H11.2499Z" fill="#606B85"/>
</svg>
