<svg width="17" height="13" viewBox="0 0 17 13" fill="none" xmlns="http://www.w3.org/2000/svg">
<path d="M6.23841 6.35589C6.23841 6.93502 6.46847 7.49043 6.87798 7.89994C7.28749 8.30945 7.8429 8.53951 8.42203 8.53951C9.00117 8.53951 9.55658 8.30945 9.96609 7.89994C10.3756 7.49043 10.6057 6.93502 10.6057 6.35589C10.6057 5.77676 10.3756 5.22135 9.96609 4.81184C9.55658 4.40233 9.00117 4.17227 8.42203 4.17227C7.8429 4.17227 7.28749 4.40233 6.87798 4.81184C6.46847 5.22135 6.23841 5.77676 6.23841 6.35589ZM16.8875 5.85288C15.0392 1.95941 12.2453 0 8.50002 0C4.75277 0 1.96086 1.95941 0.112584 5.85483C0.0384486 6.01181 0 6.18326 0 6.35686C0 6.53047 0.0384486 6.70192 0.112584 6.8589C1.96086 10.7524 4.75472 12.7118 8.50002 12.7118C12.2473 12.7118 15.0392 10.7524 16.8875 6.85695C17.0376 6.54111 17.0376 6.17457 16.8875 5.85288ZM8.42203 9.78729C6.52696 9.78729 4.99063 8.25096 4.99063 6.35589C4.99063 4.46082 6.52696 2.92449 8.42203 2.92449C10.3171 2.92449 11.8534 4.46082 11.8534 6.35589C11.8534 8.25096 10.3171 9.78729 8.42203 9.78729Z" fill="#8891AA"/>
</svg>
