<svg width="16" height="16" viewBox="0 0 16 16" fill="none" xmlns="http://www.w3.org/2000/svg">
<path fill-rule="evenodd" clip-rule="evenodd" d="M4.5 0C4.74546 0 4.94961 0.176875 4.99194 0.410124L5 0.5V2H11V0.5C11 0.223858 11.2239 0 11.5 0C11.7455 0 11.9496 0.176875 11.9919 0.410124L12 0.5V2H15.5C15.7761 2 16 2.22386 16 2.5V6.5V15.5C16 15.7761 15.7761 16 15.5 16H0.5C0.223858 16 0 15.7761 0 15.5V6.5V2.5C0 2.22386 0.223858 2 0.5 2H4V0.5C4 0.223858 4.22386 0 4.5 0ZM11 2.99951V3.99943L11.0081 4.0893C11.0504 4.32255 11.2545 4.49943 11.5 4.49943C11.7761 4.49943 12 4.27557 12 3.99943V2.99951H14.9991V6H0.999512V2.99951H4V3.99943L4.00806 4.0893C4.05039 4.32255 4.25454 4.49943 4.5 4.49943C4.77614 4.49943 5 4.27557 5 3.99943V2.99951H11ZM0.999512 7H14.9991V14.9993H0.999512V7ZM3.74931 8.49939L3.86566 8.5083C3.98266 8.52651 4.09373 8.57221 4.18965 8.64163L4.28018 8.71881C4.42151 8.86014 4.5005 9.05209 4.4996 9.24968C4.4996 9.66405 4.16368 9.99996 3.74931 9.99996C3.33494 9.99996 2.99902 9.66405 2.99902 9.24968C2.99902 8.83531 3.33494 8.49939 3.74931 8.49939ZM3.86356 12.0084L3.74472 12L3.64935 12.0066C3.38666 12.0419 3.15887 12.2144 3.05583 12.4639C2.9399 12.7447 3.00472 13.0677 3.22001 13.282C3.43531 13.4963 3.75858 13.5597 4.03883 13.4424C4.31907 13.3252 4.50099 13.0506 4.49961 12.7469C4.50054 12.5513 4.42119 12.3591 4.27932 12.2178L4.18846 12.1408C4.0922 12.0715 3.9808 12.0261 3.86356 12.0084ZM7.99943 8.49943L8.09354 8.50527C8.46349 8.55157 8.74971 8.86722 8.74971 9.24971C8.74971 9.55318 8.56691 9.82676 8.28655 9.94289C8.00619 10.059 7.68348 9.99483 7.4689 9.78025C7.25432 9.56567 7.19012 9.24296 7.30625 8.96259C7.40948 8.71338 7.63711 8.54126 7.89956 8.50608L7.99943 8.49943ZM8.11544 12.0089L7.99715 12L7.89946 12.0067C7.63676 12.0419 7.40897 12.2144 7.30593 12.464C7.19 12.7447 7.25482 13.0677 7.47011 13.282C7.68541 13.4963 8.00868 13.5597 8.28893 13.4425C8.56917 13.3253 8.75109 13.0506 8.74971 12.7469C8.74972 12.5499 8.67032 12.3588 8.52908 12.2182L8.43866 12.1414C8.34289 12.0724 8.2321 12.027 8.11544 12.0089ZM12.2497 8.49943L12.3438 8.50527C12.7138 8.55157 13 8.86722 13 9.24971C13 9.66409 12.6641 10 12.2497 10C11.8353 10 11.4994 9.66409 11.4994 9.24971C11.4994 8.86722 11.7857 8.55157 12.1556 8.50527L12.2497 8.49943ZM12.3658 12.0089L12.2498 12C11.946 12 11.6722 12.1832 11.5563 12.464C11.4404 12.7447 11.5052 13.0677 11.7205 13.282C11.9358 13.4963 12.2591 13.5597 12.5393 13.4425C12.8196 13.3253 13.0015 13.0506 13.0001 12.7469C13.0001 12.5499 12.9207 12.3588 12.7795 12.2182L12.689 12.1414C12.5933 12.0724 12.4825 12.027 12.3658 12.0089Z" fill="#606B85"/>
</svg>
