<svg width="16" height="16" viewBox="0 0 16 16" fill="none" xmlns="http://www.w3.org/2000/svg">
<path d="M8 0C6.41775 0 4.87103 0.469192 3.55544 1.34824C2.23985 2.22729 1.21447 3.47672 0.608967 4.93853C0.00346625 6.40034 -0.15496 8.00887 0.153721 9.56072C0.462403 11.1126 1.22433 12.538 2.34315 13.6569C3.46197 14.7757 4.88743 15.5376 6.43928 15.8463C7.99113 16.155 9.59966 15.9965 11.0615 15.391C12.5233 14.7855 13.7727 13.7602 14.6518 12.4446C15.5308 11.129 16 9.58225 16 8C16 5.87827 15.1571 3.84344 13.6569 2.34315C12.1566 0.842855 10.1217 0 8 0ZM1 8C1.00048 6.31794 1.60966 4.69288 2.715 3.425L12.575 13.285C11.561 14.1607 10.3169 14.7269 8.99058 14.9165C7.66425 15.1061 6.31138 14.9111 5.0926 14.3546C3.87382 13.7981 2.84035 12.9036 2.1149 11.7772C1.38945 10.6508 1.0025 9.33981 1 8ZM13.285 12.575L3.425 2.715C4.76668 1.59397 6.47931 1.0156 8.22594 1.09369C9.97258 1.17177 11.6268 1.90066 12.8631 3.13695C14.0993 4.37324 14.8282 6.02743 14.9063 7.77406C14.9844 9.52069 14.406 11.2333 13.285 12.575Z" fill="#D61F1F"/>
</svg>
