<svg width="15" height="12" viewBox="0 0 15 12" fill="none" xmlns="http://www.w3.org/2000/svg">
<path fill-rule="evenodd" clip-rule="evenodd" d="M14.987 5.86438L14.9974 5.93986L14.9972 6.06086L14.9807 6.16627L14.967 6.20834C14.9182 6.37749 14.8072 6.52124 14.66 6.61706L8.91144 11.7823C8.58856 12.0726 8.06505 12.0726 7.74217 11.7823C7.45515 11.5242 7.42326 11.1236 7.64649 10.8339L7.74217 10.7309L12.177 6.7425L0.769021 6.7434C0.344303 6.7434 0 6.41057 0 6C0 5.63505 0.272041 5.33153 0.630789 5.26858L0.769021 5.2566L12.1755 5.256L7.74217 1.26906C7.45515 1.011 7.42326 0.610421 7.64649 0.320693L7.74217 0.217736C8.02918 -0.0403214 8.4747 -0.0689944 8.79693 0.131717L8.91144 0.217736L14.66 5.38294C14.8072 5.47876 14.9182 5.62251 14.9692 5.79104L14.987 5.86438Z" fill="#121C2D"/>
</svg>
