<svg width="12" height="12" viewBox="0 0 12 12" fill="none" xmlns="http://www.w3.org/2000/svg">
<path fill-rule="evenodd" clip-rule="evenodd" d="M1.42982 1.42982C3.33626 -0.476608 6.42719 -0.476608 8.33363 1.42982C10.0639 3.16006 10.2238 5.86598 8.81335 7.77657L11.7855 10.75C12.0715 11.0359 12.0715 11.4996 11.7855 11.7855C11.4996 12.0715 11.0359 12.0715 10.75 11.7855L7.77736 8.81277C5.86673 10.2238 3.1603 10.0641 1.42982 8.33363C-0.476608 6.42719 -0.476608 3.33626 1.42982 1.42982ZM2.46539 2.46539C1.13089 3.7999 1.13089 5.96355 2.46539 7.29806C3.7999 8.63256 5.96355 8.63256 7.29806 7.29806C8.63256 5.96355 8.63256 3.7999 7.29806 2.46539C5.96355 1.13089 3.7999 1.13089 2.46539 2.46539Z" fill="#606B85"/>
</svg>
