<svg width="16" height="13" viewBox="0 0 16 13" fill="none" xmlns="http://www.w3.org/2000/svg">
<path fill-rule="evenodd" clip-rule="evenodd" d="M0.0110318 6.25649L0 6.33701L0.000151875 6.4661L0.0178087 6.57856L0.0323866 6.62344C0.0844382 6.80391 0.202913 6.95726 0.359958 7.05949L6.49286 12.57C6.83733 12.8798 7.39584 12.8798 7.74032 12.57C8.04652 12.2947 8.08054 11.8674 7.84238 11.5583L7.74032 11.4484L3.00896 7.19332L15.1797 7.19427C15.6328 7.19427 16.0001 6.83919 16.0001 6.40117C16.0001 6.01182 15.7099 5.688 15.3272 5.62085L15.1797 5.60807L3.01056 5.60743L7.74032 1.35391C8.04652 1.0786 8.08054 0.651235 7.84238 0.342135L7.74032 0.232294C7.43412 -0.0430174 6.9588 -0.0736075 6.61502 0.140523L6.49286 0.232294L0.359958 5.74285C0.202913 5.84508 0.0844382 5.99844 0.0300646 6.17824L0.0110318 6.25649Z" fill="white"/>
</svg>
