<svg width="20" height="21" viewBox="0 0 20 21" fill="none" xmlns="http://www.w3.org/2000/svg">
<path d="M13.7503 3.12539C13.7502 2.39218 14.008 1.68229 14.4784 1.11991C14.9489 0.557526 15.6021 0.178472 16.3238 0.0490639C17.0455 -0.0803441 17.7897 0.0481343 18.4262 0.412021C19.0628 0.775907 19.5511 1.35203 19.8058 2.03959C20.0604 2.72715 20.0652 3.48237 19.8193 4.17311C19.5734 4.86385 19.0924 5.44613 18.4606 5.81807C17.8287 6.19001 17.0862 6.32794 16.3629 6.20771C15.6396 6.08748 14.9816 5.71675 14.5041 5.16039L6.10658 9.06039C6.29963 9.67219 6.29963 10.3286 6.10658 10.9404L14.5041 14.8404C15.0089 14.2533 15.7137 13.8745 16.4818 13.7775C17.25 13.6804 18.0268 13.8719 18.6618 14.315C19.2968 14.7581 19.7447 15.4211 19.9187 16.1755C20.0927 16.93 19.9804 17.7222 19.6036 18.3986C19.2268 19.075 18.6123 19.5874 17.8792 19.8366C17.1461 20.0857 16.3466 20.0539 15.6357 19.7472C14.9247 19.4404 14.353 18.8807 14.0312 18.1765C13.7095 17.4722 13.6606 16.6736 13.8941 15.9354L5.49658 12.0354C5.08087 12.5199 4.52677 12.8654 3.9088 13.0255C3.29084 13.1856 2.63866 13.1526 2.04 12.931C1.44135 12.7093 0.924926 12.3097 0.560216 11.7858C0.195505 11.2618 0 10.6388 0 10.0004C0 9.36202 0.195505 8.73896 0.560216 8.21503C0.924926 7.6911 1.44135 7.29144 2.04 7.06979C2.63866 6.84815 3.29084 6.81517 3.9088 6.97529C4.52677 7.1354 5.08087 7.48093 5.49658 7.96539L13.8941 4.06539C13.7985 3.76123 13.75 3.44422 13.7503 3.12539Z" fill="black"/>
</svg>
