<svg width="8" height="13" viewBox="0 0 8 13" fill="none" xmlns="http://www.w3.org/2000/svg">
<path d="M0.286149 0.286149C0.102928 0.469425 0 0.717967 0 0.97712C0 1.23627 0.102928 1.48482 0.286149 1.66809L5.12393 6.50587L0.286149 11.3436C0.10812 11.528 0.00961078 11.7748 0.0118375 12.0311C0.0140643 12.2874 0.116849 12.5325 0.298054 12.7137C0.479259 12.8949 0.724385 12.9977 0.980637 12.9999C1.23689 13.0021 1.48376 12.9036 1.66809 12.7256L7.19684 7.19684C7.38006 7.01356 7.48299 6.76502 7.48299 6.50587C7.48299 6.24672 7.38006 5.99817 7.19684 5.8149L1.66809 0.286149C1.48482 0.102928 1.23627 0 0.97712 0C0.717967 0 0.469425 0.102928 0.286149 0.286149Z" fill="#606B85"/>
</svg>
