<svg width="16" height="13" viewBox="0 0 16 13" fill="none" xmlns="http://www.w3.org/2000/svg">
<path fill-rule="evenodd" clip-rule="evenodd" d="M3.885 12.9998C3.75228 13.0025 3.62066 12.9753 3.5 12.9201C3.19067 12.7753 2.99507 12.4634 3 12.1229V9.96536H1.25C0.559644 9.96536 0 9.40766 0 8.71969V1.24567C0 0.557706 0.559644 0 1.25 0H14.75C15.4404 0 16 0.557706 16 1.24567V8.71969C16 9.40766 15.4404 9.96536 14.75 9.96536H7.69L4.455 12.7856C4.29666 12.9223 4.09454 12.9983 3.885 12.9998ZM1.25 0.996536C1.11193 0.996536 1 1.10808 1 1.24567V8.71969C1 8.85729 1.11193 8.96883 1.25 8.96883H3.5C3.6329 8.96806 3.76064 9.02006 3.855 9.11333C3.94859 9.20736 4.00077 9.33465 4 9.4671V11.8438L7.165 9.08841C7.25817 9.00896 7.3774 8.9664 7.5 8.96883H14.75C14.8881 8.96883 15 8.85729 15 8.71969V1.24567C15 1.10808 14.8881 0.996536 14.75 0.996536H1.25Z" fill="#0263E0"/>
</svg>
