<svg width="26" height="21" viewBox="0 0 26 21" fill="none" xmlns="http://www.w3.org/2000/svg">
<path fill-rule="evenodd" clip-rule="evenodd" d="M12.2305 0.20902C12.5207 -0.0696732 12.9792 -0.0696732 13.2694 0.20902L25.2693 11.7317C25.5681 12.0186 25.5777 12.4933 25.2908 12.7921C25.0039 13.0909 24.5292 13.1005 24.2304 12.8136L12.7499 1.78977L1.26946 12.8136C0.970684 13.1005 0.49591 13.0909 0.209021 12.7921C-0.077869 12.4933 -0.068236 12.0186 0.230537 11.7317L12.2305 0.20902Z" fill="#0263E0"/>
<path fill-rule="evenodd" clip-rule="evenodd" d="M4.4423 7.97739C4.85651 7.97739 5.19229 8.31317 5.19229 8.72739V19.5001H9.74994C10.1642 19.5001 10.4999 19.8358 10.4999 20.25C10.4999 20.6643 10.1642 21 9.74994 21H4.4423C4.02809 21 3.6923 20.6643 3.6923 20.25V8.72739C3.6923 8.31317 4.02809 7.97739 4.4423 7.97739ZM21.0576 7.97739C21.4718 7.97739 21.8076 8.31317 21.8076 8.72739V20.25C21.8076 20.449 21.7286 20.6397 21.5879 20.7804C21.4473 20.921 21.2565 21 21.0576 21L15.7499 21C15.3357 21 14.9999 20.6642 14.9999 20.25C14.9999 19.8357 15.3357 19.5 15.7499 19.5L20.3076 19.5V8.72739C20.3076 8.31317 20.6434 7.97739 21.0576 7.97739Z" fill="#0263E0"/>
<path fill-rule="evenodd" clip-rule="evenodd" d="M11.2499 13.4999C10.8357 13.4999 10.4999 13.8357 10.4999 14.2499V20.25L8.99995 20.2499V14.2499C8.99995 13.0073 10.0073 11.9999 11.2499 11.9999H14.2499C15.4926 11.9999 16.4999 13.0073 16.4999 14.2499V20.2499L14.9999 20.25L14.9999 14.2499C14.9999 13.8357 14.6641 13.4999 14.2499 13.4999H11.2499Z" fill="#0263E0"/>
</svg>
