<svg width="21" height="22" viewBox="0 0 21 22" fill="none" xmlns="http://www.w3.org/2000/svg">
<path d="M11.1307 0L10.8499 0.251218L0.615483 10.5987L0 11.216L0.61638 11.862L9.13984 20.3854L9.78582 21.0018L10.4049 20.3854L20.7497 10.151L21 9.86926V0H11.1307ZM11.888 1.79441H19.2056V9.11202L9.78493 18.4771L2.52294 11.2151L11.888 1.79441ZM16.514 3.58882C16.276 3.58882 16.0478 3.68335 15.8795 3.85161C15.7113 4.01987 15.6168 4.24808 15.6168 4.48603C15.6168 4.72398 15.7113 4.95219 15.8795 5.12045C16.0478 5.28871 16.276 5.38323 16.514 5.38323C16.7519 5.38323 16.9801 5.28871 17.1484 5.12045C17.3167 4.95219 17.4112 4.72398 17.4112 4.48603C17.4112 4.24808 17.3167 4.01987 17.1484 3.85161C16.9801 3.68335 16.7519 3.58882 16.514 3.58882Z" fill="#7DA6E4"/>
</svg>
