<svg width="43" height="43" viewBox="0 0 43 43" fill="none" xmlns="http://www.w3.org/2000/svg">
<path d="M21.5 9.40625C21.5 9.04987 21.3584 8.70808 21.1064 8.45608C20.8544 8.20407 20.5126 8.0625 20.1562 8.0625C19.7999 8.0625 19.4581 8.20407 19.2061 8.45608C18.9541 8.70808 18.8125 9.04987 18.8125 9.40625V24.1875C18.8126 24.4244 18.8753 24.657 18.9942 24.8618C19.1131 25.0666 19.2841 25.2364 19.4897 25.3539L28.896 30.7289C29.2047 30.8957 29.5664 30.9352 29.9038 30.8389C30.2412 30.7425 30.5275 30.5181 30.7016 30.2134C30.8757 29.9088 30.9237 29.5481 30.8354 29.2085C30.7471 28.8689 30.5294 28.5774 30.229 28.3961L21.5 23.4081V9.40625Z" fill="#121C2D"/>
<path d="M21.5 43C27.2022 43 32.6708 40.7348 36.7028 36.7028C40.7348 32.6708 43 27.2022 43 21.5C43 15.7978 40.7348 10.3292 36.7028 6.2972C32.6708 2.26517 27.2022 0 21.5 0C15.7978 0 10.3292 2.26517 6.2972 6.2972C2.26517 10.3292 0 15.7978 0 21.5C0 27.2022 2.26517 32.6708 6.2972 36.7028C10.3292 40.7348 15.7978 43 21.5 43ZM40.3125 21.5C40.3125 26.4894 38.3305 31.2744 34.8024 34.8024C31.2744 38.3305 26.4894 40.3125 21.5 40.3125C16.5106 40.3125 11.7256 38.3305 8.19755 34.8024C4.66953 31.2744 2.6875 26.4894 2.6875 21.5C2.6875 16.5106 4.66953 11.7256 8.19755 8.19755C11.7256 4.66953 16.5106 2.6875 21.5 2.6875C26.4894 2.6875 31.2744 4.66953 34.8024 8.19755C38.3305 11.7256 40.3125 16.5106 40.3125 21.5Z" fill="#121C2D"/>
</svg>
