<svg width="24" height="20" viewBox="0 0 24 20" fill="none" xmlns="http://www.w3.org/2000/svg">
<path fill-rule="evenodd" clip-rule="evenodd" d="M5.8275 19.4997C5.62841 19.5038 5.43098 19.4629 5.25 19.3801C4.786 19.1629 4.4926 18.6951 4.5 18.1843V14.948H1.875C0.839466 14.948 0 14.1115 0 13.0795V1.86851C0 0.836558 0.839466 0 1.875 0H22.125C23.1605 0 24 0.836558 24 1.86851V13.0795C24 14.1115 23.1605 14.948 22.125 14.948H11.535L6.6825 19.1783C6.44499 19.3835 6.14181 19.4975 5.8275 19.4997ZM1.875 1.4948C1.66789 1.4948 1.5 1.66212 1.5 1.86851V13.0795C1.5 13.2859 1.66789 13.4532 1.875 13.4532H5.25C5.44935 13.4521 5.64096 13.5301 5.7825 13.67C5.92289 13.811 6.00115 14.002 6 14.2006V17.7658L10.7475 13.6326C10.8873 13.5134 11.0661 13.4496 11.25 13.4532H22.125C22.3321 13.4532 22.5 13.2859 22.5 13.0795V1.86851C22.5 1.66212 22.3321 1.4948 22.125 1.4948H1.875Z" fill="#606B85"/>
</svg>
