<svg width="260" height="266" viewBox="0 0 260 266" fill="none" xmlns="http://www.w3.org/2000/svg">
<path d="M129.857 215.304H128.343V207.979L126.11 208.743V207.459L129.663 206.149H129.857V215.304Z" fill="#4D4D4D"/>
<path d="M138.758 208.587C138.758 209.034 138.643 209.433 138.413 209.784C138.184 210.13 137.871 210.404 137.475 210.604C137.951 210.826 138.315 211.129 138.57 211.513C138.828 211.897 138.958 212.332 138.958 212.816C138.958 213.619 138.687 214.256 138.145 214.728C137.602 215.196 136.881 215.43 135.98 215.43C135.075 215.43 134.35 215.194 133.804 214.722C133.261 214.249 132.99 213.614 132.99 212.816C132.99 212.328 133.12 211.889 133.378 211.501C133.637 211.112 134 210.813 134.467 210.604C134.075 210.404 133.764 210.13 133.535 209.784C133.309 209.433 133.197 209.034 133.197 208.587C133.197 207.81 133.447 207.193 133.947 206.738C134.448 206.283 135.123 206.055 135.974 206.055C136.829 206.055 137.507 206.283 138.007 206.738C138.507 207.193 138.758 207.81 138.758 208.587ZM137.438 212.741C137.438 212.29 137.302 211.927 137.031 211.651C136.764 211.371 136.41 211.231 135.968 211.231C135.526 211.231 135.171 211.369 134.904 211.645C134.642 211.92 134.51 212.286 134.51 212.741C134.51 213.188 134.64 213.546 134.898 213.813C135.161 214.08 135.522 214.214 135.98 214.214C136.439 214.214 136.796 214.084 137.05 213.825C137.308 213.566 137.438 213.205 137.438 212.741ZM137.244 208.643C137.244 208.246 137.129 207.92 136.9 207.665C136.67 207.406 136.362 207.277 135.974 207.277C135.586 207.277 135.28 207.4 135.055 207.647C134.829 207.889 134.717 208.221 134.717 208.643C134.717 209.061 134.829 209.393 135.055 209.639C135.284 209.886 135.592 210.009 135.98 210.009C136.368 210.009 136.675 209.886 136.9 209.639C137.129 209.393 137.244 209.061 137.244 208.643Z" fill="#4D4D4D"/>
<path d="M166.579 203.326H165.065V196.001L162.832 196.765V195.48L166.385 194.171H166.579V203.326Z" fill="#4D4D4D"/>
<path d="M175.805 195.048L172.165 203.326H170.57L174.204 195.424H169.494V194.202H175.805V195.048Z" fill="#4D4D4D"/>
<path d="M196.47 176.803H194.956V169.477L192.723 170.242V168.957L196.276 167.648H196.47V176.803Z" fill="#4D4D4D"/>
<path d="M204.363 167.635V168.895H204.176C203.325 168.907 202.645 169.141 202.137 169.596C201.628 170.052 201.325 170.697 201.23 171.533C201.717 171.019 202.341 170.762 203.1 170.762C203.905 170.762 204.538 171.046 205.001 171.614C205.468 172.182 205.702 172.916 205.702 173.814C205.702 174.741 205.429 175.493 204.882 176.07C204.34 176.642 203.627 176.928 202.743 176.928C201.834 176.928 201.096 176.592 200.529 175.919C199.966 175.247 199.685 174.365 199.685 173.275V172.755C199.685 171.155 200.072 169.901 200.848 168.995C201.628 168.088 202.747 167.635 204.207 167.635H204.363ZM202.731 171.99C202.397 171.99 202.091 172.084 201.811 172.272C201.536 172.46 201.334 172.711 201.205 173.024V173.488C201.205 174.165 201.346 174.704 201.63 175.105C201.913 175.502 202.28 175.7 202.731 175.7C203.181 175.7 203.538 175.531 203.8 175.192C204.063 174.854 204.194 174.409 204.194 173.858C204.194 173.306 204.061 172.857 203.794 172.51C203.527 172.164 203.173 171.99 202.731 171.99Z" fill="#4D4D4D"/>
<path d="M204.156 139.157H202.642V131.831L200.409 132.596V131.311L203.962 130.002H204.156V139.157Z" fill="#4D4D4D"/>
<path d="M207.727 134.633L208.221 130.033H213.113V131.349H209.485L209.235 133.53C209.656 133.287 210.131 133.166 210.661 133.166C211.528 133.166 212.202 133.444 212.681 134C213.165 134.555 213.407 135.303 213.407 136.243C213.407 137.171 213.14 137.91 212.606 138.461C212.072 139.009 211.34 139.282 210.411 139.282C209.577 139.282 208.884 139.046 208.334 138.574C207.788 138.098 207.492 137.471 207.446 136.694H208.916C208.974 137.137 209.133 137.478 209.391 137.716C209.65 137.95 209.987 138.067 210.404 138.067C210.871 138.067 211.234 137.9 211.493 137.565C211.755 137.231 211.887 136.776 211.887 136.199C211.887 135.644 211.743 135.205 211.455 134.883C211.167 134.557 210.771 134.394 210.267 134.394C209.992 134.394 209.758 134.432 209.566 134.507C209.374 134.578 209.166 134.72 208.941 134.933L207.727 134.633Z" fill="#4D4D4D"/>
<path d="M192.199 101.511H190.686V94.1856L188.453 94.9501V93.6655L192.006 92.3558H192.199V101.511Z" fill="#4D4D4D"/>
<path d="M200.506 98.2589H201.638V99.4808H200.506V101.511H198.986V99.4808H195.052L195.008 98.5534L198.936 92.3871H200.506V98.2589ZM196.603 98.2589H198.986V94.4488L198.874 94.6494L196.603 98.2589Z" fill="#4D4D4D"/>
<path d="M166.579 75.8436H165.065V68.518L162.832 69.2825V67.9979L166.385 66.6882H166.579V75.8436Z" fill="#4D4D4D"/>
<path d="M171.502 70.586H172.428C172.895 70.5818 173.264 70.4606 173.535 70.2225C173.81 69.9844 173.948 69.6397 173.948 69.1885C173.948 68.754 173.833 68.4177 173.603 68.1796C173.378 67.9373 173.032 67.8162 172.565 67.8162C172.156 67.8162 171.821 67.9352 171.558 68.1734C171.295 68.4073 171.164 68.7144 171.164 69.0945H169.644C169.644 68.6266 169.767 68.2005 170.013 67.8162C170.263 67.4318 170.609 67.1331 171.051 66.92C171.498 66.7028 171.996 66.5942 172.546 66.5942C173.455 66.5942 174.169 66.824 174.686 67.2835C175.207 67.7389 175.467 68.3739 175.467 69.1885C175.467 69.5979 175.336 69.9844 175.073 70.3478C174.815 70.7071 174.479 70.9787 174.066 71.1625C174.567 71.3338 174.946 71.6032 175.205 71.9709C175.467 72.3385 175.599 72.7771 175.599 73.2868C175.599 74.1056 175.317 74.7574 174.754 75.242C174.196 75.7266 173.46 75.9689 172.546 75.9689C171.671 75.9689 170.953 75.7349 170.395 75.267C169.836 74.7991 169.557 74.1767 169.557 73.3996H171.076C171.076 73.8007 171.21 74.1265 171.477 74.3772C171.748 74.6279 172.111 74.7532 172.565 74.7532C173.036 74.7532 173.407 74.6279 173.679 74.3772C173.95 74.1265 174.085 73.7631 174.085 73.2868C174.085 72.8064 173.943 72.4367 173.66 72.1777C173.376 71.9186 172.955 71.7891 172.396 71.7891H171.502V70.586Z" fill="#4D4D4D"/>
<path d="M131.677 60.024C131.677 61.3358 131.431 62.3259 130.939 62.9943C130.451 63.6585 129.707 63.9907 128.706 63.9907C127.722 63.9907 126.979 63.6669 126.479 63.0194C125.983 62.3676 125.728 61.4047 125.716 60.1305V58.5513C125.716 57.2395 125.96 56.2557 126.448 55.5998C126.94 54.9439 127.688 54.616 128.693 54.616C129.69 54.616 130.432 54.9356 130.92 55.5747C131.412 56.2139 131.664 57.1706 131.677 58.4448V60.024ZM130.157 58.3195C130.157 57.4631 130.04 56.8364 129.807 56.4395C129.573 56.0385 129.202 55.8379 128.693 55.8379C128.197 55.8379 127.832 56.028 127.599 56.4082C127.365 56.7842 127.242 57.3732 127.23 58.1753V60.2433C127.23 61.0955 127.348 61.7305 127.586 62.1483C127.824 62.5661 128.197 62.775 128.706 62.775C129.194 62.775 129.554 62.5828 129.788 62.1984C130.021 61.8099 130.144 61.2042 130.157 60.3812V58.3195Z" fill="#4D4D4D"/>
<path d="M138.958 60.024C138.958 61.3358 138.712 62.3259 138.22 62.9943C137.732 63.6585 136.987 63.9907 135.987 63.9907C135.002 63.9907 134.26 63.6669 133.76 63.0194C133.264 62.3676 133.009 61.4047 132.997 60.1305V58.5513C132.997 57.2395 133.241 56.2557 133.729 55.5998C134.221 54.9439 134.969 54.616 135.974 54.616C136.971 54.616 137.713 54.9356 138.201 55.5747C138.693 56.2139 138.945 57.1706 138.958 58.4448V60.024ZM137.438 58.3195C137.438 57.4631 137.321 56.8364 137.087 56.4395C136.854 56.0385 136.483 55.8379 135.974 55.8379C135.478 55.8379 135.113 56.028 134.879 56.4082C134.646 56.7842 134.523 57.3732 134.51 58.1753V60.2433C134.51 61.0955 134.629 61.7305 134.867 62.1483C135.105 62.5661 135.478 62.775 135.987 62.775C136.474 62.775 136.835 62.5828 137.069 62.1984C137.302 61.8099 137.425 61.2042 137.438 60.3812V58.3195Z" fill="#4D4D4D"/>
<path d="M93.4341 75.8436H87.3104V74.7971L90.3441 71.4821C90.7819 70.9933 91.0926 70.586 91.2761 70.2601C91.4637 69.9301 91.5576 69.6 91.5576 69.27C91.5576 68.8355 91.4345 68.4846 91.1885 68.2172C90.9467 67.9498 90.6193 67.8162 90.2065 67.8162C89.7144 67.8162 89.3329 67.9666 89.0618 68.2673C88.7908 68.5681 88.6553 68.9796 88.6553 69.5019H87.1353C87.1353 68.9462 87.2604 68.447 87.5106 68.0042C87.765 67.5571 88.1257 67.2104 88.5927 66.9639C89.0639 66.7174 89.606 66.5942 90.219 66.5942C91.103 66.5942 91.7994 66.8177 92.3082 67.2647C92.8211 67.7075 93.0775 68.3217 93.0775 69.1071C93.0775 69.5624 92.9483 70.0408 92.6897 70.5421C92.4353 71.0392 92.0163 71.6053 91.4325 72.2403L89.2057 74.6279H93.4341V75.8436Z" fill="#4D4D4D"/>
<path d="M96.3489 70.586H97.2746C97.7416 70.5818 98.1107 70.4606 98.3817 70.2225C98.6569 69.9844 98.7946 69.6397 98.7946 69.1885C98.7946 68.754 98.6799 68.4177 98.4505 68.1796C98.2254 67.9373 97.8792 67.8162 97.4122 67.8162C97.0036 67.8162 96.6679 67.9352 96.4052 68.1734C96.1425 68.4073 96.0111 68.7144 96.0111 69.0945H94.4911C94.4911 68.6266 94.6142 68.2005 94.8602 67.8162C95.1104 67.4318 95.4565 67.1331 95.8985 66.92C96.3447 66.7028 96.843 66.5942 97.3934 66.5942C98.3025 66.5942 99.0156 66.824 99.5326 67.2835C100.054 67.7389 100.315 68.3739 100.315 69.1885C100.315 69.5979 100.183 69.9844 99.9204 70.3478C99.6619 70.7071 99.3262 70.9787 98.9134 71.1625C99.4138 71.3338 99.7933 71.6032 100.052 71.9709C100.315 72.3385 100.446 72.7771 100.446 73.2868C100.446 74.1056 100.164 74.7574 99.6014 75.242C99.0427 75.7266 98.3067 75.9689 97.3934 75.9689C96.5177 75.9689 95.8005 75.7349 95.2417 75.267C94.683 74.7991 94.4036 74.1767 94.4036 73.3996H95.9235C95.9235 73.8007 96.057 74.1265 96.3238 74.3772C96.5949 74.6279 96.9577 74.7532 97.4122 74.7532C97.8834 74.7532 98.2545 74.6279 98.5256 74.3772C98.7966 74.1265 98.9322 73.7631 98.9322 73.2868C98.9322 72.8064 98.7904 72.4367 98.5068 72.1777C98.2233 71.9186 97.8021 71.7891 97.2433 71.7891H96.3489V70.586Z" fill="#4D4D4D"/>
<path d="M64.3977 101.511H58.2741V100.465L61.3077 97.1497C61.7456 96.6609 62.0562 96.2536 62.2397 95.9277C62.4274 95.5977 62.5212 95.2677 62.5212 94.9376C62.5212 94.5031 62.3982 94.1522 62.1522 93.8848C61.9103 93.6175 61.583 93.4838 61.1701 93.4838C60.6781 93.4838 60.2965 93.6342 60.0255 93.935C59.7544 94.2358 59.6189 94.6473 59.6189 95.1695H58.0989C58.0989 94.6138 58.224 94.1146 58.4742 93.6718C58.7286 93.2248 59.0893 92.878 59.5563 92.6315C60.0276 92.3851 60.5697 92.2618 61.1826 92.2618C62.0667 92.2618 62.7631 92.4853 63.2718 92.9323C63.7847 93.3752 64.0412 93.9893 64.0412 94.7747C64.0412 95.2301 63.9119 95.7084 63.6533 96.2097C63.399 96.7069 62.9799 97.2729 62.3961 97.9079L60.1693 100.295H64.3977V101.511Z" fill="#4D4D4D"/>
<path d="M71.6785 101.511H65.5549V100.465L68.5885 97.1497C69.0264 96.6609 69.337 96.2536 69.5205 95.9277C69.7081 95.5977 69.802 95.2677 69.802 94.9376C69.802 94.5031 69.679 94.1522 69.4329 93.8848C69.1911 93.6175 68.8637 93.4838 68.4509 93.4838C67.9588 93.4838 67.5773 93.6342 67.3062 93.935C67.0352 94.2358 66.8997 94.6473 66.8997 95.1695H65.3797C65.3797 94.6138 65.5048 94.1146 65.755 93.6718C66.0094 93.2248 66.3701 92.878 66.8371 92.6315C67.3083 92.3851 67.8504 92.2618 68.4634 92.2618C69.3474 92.2618 70.0438 92.4853 70.5526 92.9323C71.0655 93.3752 71.3219 93.9893 71.3219 94.7747C71.3219 95.2301 71.1927 95.7084 70.9341 96.2097C70.6798 96.7069 70.2607 97.2729 69.6769 97.9079L67.4501 100.295H71.6785V101.511Z" fill="#4D4D4D"/>
<path d="M67.8137 176.803H61.6901V175.756L64.7238 172.441C65.1616 171.953 65.4723 171.545 65.6558 171.219C65.8434 170.889 65.9372 170.559 65.9372 170.229C65.9372 169.795 65.8142 169.444 65.5682 169.177C65.3263 168.909 64.999 168.775 64.5862 168.775C64.0941 168.775 63.7126 168.926 63.4415 169.227C63.1705 169.527 63.0349 169.939 63.0349 170.461H61.515C61.515 169.906 61.6401 169.406 61.8903 168.963C62.1446 168.516 62.5054 168.17 62.9724 167.923C63.4436 167.677 63.9857 167.554 64.5987 167.554C65.4827 167.554 66.1791 167.777 66.6878 168.224C67.2007 168.667 67.4572 169.281 67.4572 170.066C67.4572 170.522 67.3279 171 67.0694 171.501C66.815 171.999 66.3959 172.565 65.8121 173.2L63.5854 175.587H67.8137V176.803Z" fill="#4D4D4D"/>
<path d="M74.9069 172.962C74.9069 174.273 74.6608 175.263 74.1688 175.932C73.6809 176.596 72.9365 176.928 71.9357 176.928C70.9516 176.928 70.2094 176.604 69.709 175.957C69.2128 175.305 68.9584 174.342 68.9459 173.068V171.489C68.9459 170.177 69.1898 169.193 69.6777 168.537C70.1698 167.881 70.9183 167.554 71.9232 167.554C72.9199 167.554 73.6621 167.873 74.15 168.512C74.6421 169.151 74.8943 170.108 74.9069 171.382V172.962ZM73.3869 171.257C73.3869 170.401 73.2701 169.774 73.0366 169.377C72.8031 168.976 72.432 168.775 71.9232 168.775C71.427 168.775 71.0621 168.966 70.8286 169.346C70.5951 169.722 70.4721 170.311 70.4596 171.113V173.181C70.4596 174.033 70.5784 174.668 70.8161 175.086C71.0538 175.504 71.427 175.713 71.9357 175.713C72.4236 175.713 72.7843 175.52 73.0179 175.136C73.2514 174.747 73.3744 174.142 73.3869 173.319V171.257Z" fill="#4D4D4D"/>
<path d="M91.4262 203.326H89.9125V196.001L87.6795 196.765V195.48L91.2323 194.171H91.4262V203.326Z" fill="#4D4D4D"/>
<path d="M98.9009 199.51C98.3922 200.049 97.7979 200.318 97.1182 200.318C96.3176 200.318 95.6796 200.038 95.2042 199.478C94.7288 198.914 94.4911 198.175 94.4911 197.26C94.4911 196.659 94.6121 196.113 94.8539 195.625C95.0958 195.136 95.4398 194.756 95.886 194.484C96.3322 194.213 96.8493 194.077 97.4372 194.077C98.3546 194.077 99.0823 194.419 99.6202 195.104C100.158 195.79 100.427 196.707 100.427 197.855V198.282C100.427 199.928 100.056 201.183 99.3137 202.048C98.5715 202.912 97.4643 203.351 95.9923 203.364H95.8109V202.104H96.0299C96.9264 202.092 97.6145 201.876 98.094 201.459C98.5735 201.037 98.8425 200.387 98.9009 199.51ZM97.4372 199.128C97.7416 199.128 98.0273 199.04 98.2942 198.864C98.561 198.689 98.7674 198.447 98.9134 198.137V197.542C98.9134 196.869 98.7758 196.328 98.5006 195.919C98.2254 195.51 97.8688 195.305 97.431 195.305C96.9931 195.305 96.6428 195.487 96.3801 195.85C96.1216 196.209 95.9923 196.665 95.9923 197.216C95.9923 197.789 96.1237 198.25 96.3864 198.601C96.6491 198.952 96.9994 199.128 97.4372 199.128Z" fill="#4D4D4D"/>
<path d="M195.767 28.0669H194.251V20.7428L192.015 21.5071V20.2227L195.573 18.9133H195.767V28.0669Z" fill="#4D4D4D"/>
<path d="M243.954 75.9706H237.822V74.9243L240.86 71.61C241.298 71.1213 241.609 70.714 241.793 70.3882C241.981 70.0583 242.075 69.7283 242.075 69.3983C242.075 68.9639 241.952 68.6131 241.705 68.3457C241.463 68.0784 241.135 67.9448 240.722 67.9448C240.229 67.9448 239.847 68.0951 239.576 68.3959C239.304 68.6966 239.169 69.108 239.169 69.6301H237.647C237.647 69.0746 237.772 68.5755 238.023 68.1327C238.277 67.6858 238.638 67.3391 239.106 67.0927C239.578 66.8463 240.121 66.723 240.734 66.723C241.62 66.723 242.317 66.9465 242.826 67.3934C243.34 67.8362 243.597 68.4502 243.597 69.2354C243.597 69.6907 243.467 70.169 243.208 70.6702C242.954 71.1672 242.534 71.7332 241.949 72.3681L239.72 74.7552H243.954V75.9706Z" fill="#4D4D4D"/>
<path d="M255.829 134.015H256.756C257.224 134.011 257.593 133.89 257.865 133.652C258.14 133.414 258.278 133.069 258.278 132.618C258.278 132.184 258.163 131.848 257.934 131.609C257.708 131.367 257.362 131.246 256.894 131.246C256.485 131.246 256.149 131.365 255.886 131.603C255.623 131.837 255.491 132.144 255.491 132.524H253.969C253.969 132.056 254.092 131.63 254.339 131.246C254.589 130.862 254.936 130.563 255.378 130.35C255.825 130.133 256.324 130.024 256.875 130.024C257.785 130.024 258.499 130.254 259.017 130.714C259.539 131.169 259.8 131.804 259.8 132.618C259.8 133.028 259.668 133.414 259.405 133.777C259.147 134.137 258.81 134.408 258.397 134.592C258.898 134.763 259.278 135.032 259.537 135.4C259.8 135.768 259.932 136.206 259.932 136.716C259.932 137.534 259.65 138.186 259.086 138.671C258.527 139.155 257.79 139.397 256.875 139.397C255.998 139.397 255.28 139.163 254.721 138.696C254.161 138.228 253.881 137.605 253.881 136.829H255.403C255.403 137.229 255.537 137.555 255.804 137.806C256.076 138.057 256.439 138.182 256.894 138.182C257.366 138.182 257.737 138.057 258.009 137.806C258.28 137.555 258.416 137.192 258.416 136.716C258.416 136.235 258.274 135.866 257.99 135.607C257.706 135.348 257.284 135.218 256.725 135.218H255.829V134.015Z" fill="#4D4D4D"/>
<path d="M242.97 200.177H244.104V201.399H242.97V203.429H241.448V201.399H237.509L237.465 200.472L241.398 194.306H242.97V200.177ZM239.062 200.177H241.448V196.368L241.336 196.568L239.062 200.177Z" fill="#4D4D4D"/>
<path d="M192.053 245.953L192.548 241.355H197.446V242.67H193.813L193.562 244.851C193.984 244.609 194.46 244.487 194.99 244.487C195.859 244.487 196.533 244.765 197.013 245.321C197.498 245.876 197.74 246.624 197.74 247.564C197.74 248.491 197.473 249.23 196.938 249.782C196.404 250.329 195.671 250.602 194.74 250.602C193.905 250.602 193.212 250.366 192.661 249.894C192.114 249.418 191.817 248.792 191.771 248.015H193.243C193.301 248.458 193.46 248.798 193.719 249.036C193.978 249.27 194.316 249.387 194.734 249.387C195.201 249.387 195.565 249.22 195.823 248.886C196.086 248.551 196.218 248.096 196.218 247.52C196.218 246.964 196.074 246.526 195.786 246.204C195.498 245.878 195.101 245.715 194.596 245.715C194.32 245.715 194.086 245.753 193.894 245.828C193.702 245.899 193.494 246.041 193.268 246.254L192.053 245.953Z" fill="#4D4D4D"/>
<path d="M133.957 256.709V257.968H133.77C132.918 257.98 132.237 258.214 131.728 258.67C131.218 259.125 130.916 259.77 130.82 260.606C131.308 260.092 131.932 259.835 132.692 259.835C133.498 259.835 134.133 260.119 134.596 260.687C135.064 261.255 135.298 261.988 135.298 262.886C135.298 263.813 135.024 264.565 134.477 265.142C133.934 265.714 133.22 266 132.335 266C131.425 266 130.686 265.664 130.118 264.991C129.554 264.319 129.273 263.437 129.273 262.347V261.827C129.273 260.228 129.661 258.974 130.438 258.068C131.218 257.162 132.339 256.709 133.801 256.709H133.957ZM132.323 261.063C131.989 261.063 131.682 261.157 131.402 261.345C131.127 261.533 130.924 261.783 130.795 262.097V262.56C130.795 263.237 130.937 263.776 131.22 264.177C131.504 264.574 131.872 264.772 132.323 264.772C132.774 264.772 133.131 264.603 133.394 264.264C133.657 263.926 133.788 263.481 133.788 262.93C133.788 262.379 133.655 261.93 133.387 261.583C133.12 261.236 132.765 261.063 132.323 261.063Z" fill="#4D4D4D"/>
<path d="M129.699 9.2476H128.183V1.92345L125.947 2.68782V1.40343L129.504 0.0939796H129.699V9.2476Z" fill="#4D4D4D"/>
<path d="M138.999 9.2476H132.868V8.20129L135.905 4.88694C136.344 4.39825 136.655 3.991 136.838 3.66521C137.026 3.33523 137.12 3.00526 137.12 2.67529C137.12 2.24089 136.997 1.89003 136.751 1.62272C136.509 1.3554 136.181 1.22174 135.767 1.22174C135.275 1.22174 134.893 1.3721 134.621 1.67284C134.35 1.97357 134.214 2.38499 134.214 2.9071H132.692C132.692 2.35158 132.818 1.85244 133.068 1.40969C133.323 0.962769 133.684 0.616089 134.152 0.369653C134.623 0.123218 135.166 0 135.78 0C136.665 0 137.362 0.223463 137.872 0.670388C138.385 1.11314 138.642 1.72714 138.642 2.51239C138.642 2.96767 138.513 3.44592 138.254 3.94714C137.999 4.44419 137.58 5.01016 136.995 5.64504L134.765 8.03213H138.999V9.2476Z" fill="#4D4D4D"/>
<path d="M62.1445 28.0669H60.6288V20.7428L58.3929 21.5071V20.2227L61.9503 18.9133H62.1445V28.0669Z" fill="#4D4D4D"/>
<path d="M69.4347 28.0669H67.919V20.7428L65.6831 21.5071V20.2227L69.2405 18.9133H69.4347V28.0669Z" fill="#4D4D4D"/>
<path d="M16.8234 75.9706H15.3077V68.6465L13.0718 69.4109V68.1265L16.6292 66.817H16.8234V75.9706Z" fill="#4D4D4D"/>
<path d="M25.9361 72.13C25.9361 73.4415 25.6898 74.4315 25.1971 75.0998C24.7086 75.7639 23.9633 76.0959 22.9612 76.0959C21.9758 76.0959 21.2326 75.7722 20.7315 75.1248C20.2347 74.4732 19.98 73.5105 19.9674 72.2365V70.6577C19.9674 69.3461 20.2117 68.3625 20.7002 67.7067C21.1929 67.0509 21.9424 66.723 22.9486 66.723C23.9466 66.723 24.6898 67.0426 25.1783 67.6816C25.671 68.3207 25.9236 69.2772 25.9361 70.5511V72.13ZM24.4142 70.4258C24.4142 69.5696 24.2973 68.943 24.0635 68.5462C23.8296 68.1453 23.458 67.9448 22.9486 67.9448C22.4518 67.9448 22.0864 68.1348 21.8526 68.5149C21.6188 68.8908 21.4956 69.4798 21.4831 70.2817V72.3493C21.4831 73.2014 21.6021 73.8363 21.8401 74.2539C22.0781 74.6716 22.4518 74.8805 22.9612 74.8805C23.4497 74.8805 23.8109 74.6883 24.0447 74.3041C24.2785 73.9156 24.4017 73.31 24.4142 72.4871V70.4258Z" fill="#4D4D4D"/>
<path d="M4.41545 135.456C3.90605 135.995 3.31106 136.265 2.63048 136.265C1.82881 136.265 1.18998 135.985 0.713987 135.425C0.237996 134.861 0 134.122 0 133.207C0 132.606 0.121086 132.061 0.363257 131.572C0.605428 131.083 0.949896 130.703 1.39666 130.432C1.84342 130.16 2.36117 130.024 2.9499 130.024C3.86848 130.024 4.59708 130.367 5.1357 131.052C5.67432 131.737 5.94363 132.654 5.94363 133.802V134.228C5.94363 135.874 5.57202 137.129 4.82881 137.994C4.0856 138.858 2.97704 139.297 1.50313 139.31H1.3215V138.05H1.54071C2.43841 138.038 3.12735 137.823 3.60752 137.405C4.08768 136.983 4.35699 136.334 4.41545 135.456ZM2.9499 135.074C3.2547 135.074 3.54071 134.987 3.80793 134.811C4.07516 134.636 4.28184 134.393 4.42798 134.084V133.489C4.42798 132.817 4.29019 132.276 4.01461 131.866C3.73904 131.457 3.38205 131.252 2.94363 131.252C2.50522 131.252 2.15449 131.434 1.89144 131.797C1.63257 132.157 1.50313 132.612 1.50313 133.163C1.50313 133.736 1.63466 134.197 1.8977 134.548C2.16075 134.899 2.51148 135.074 2.9499 135.074Z" fill="#4D4D4D"/>
<path d="M22.0906 196.712C22.0906 197.159 21.9758 197.558 21.7461 197.909C21.5165 198.256 21.2033 198.529 20.8067 198.73C21.2827 198.951 21.648 199.254 21.9027 199.638C22.1616 200.023 22.291 200.457 22.291 200.941C22.291 201.743 22.0196 202.38 21.4768 202.852C20.934 203.32 20.2117 203.554 19.3098 203.554C18.4038 203.554 17.6772 203.318 17.1303 202.846C16.5875 202.374 16.3161 201.739 16.3161 200.941C16.3161 200.453 16.4455 200.014 16.7044 199.626C16.9633 199.237 17.3265 198.939 17.7942 198.73C17.4017 198.529 17.0906 198.256 16.861 197.909C16.6355 197.558 16.5228 197.159 16.5228 196.712C16.5228 195.935 16.7733 195.319 17.2743 194.864C17.7754 194.409 18.4518 194.181 19.3035 194.181C20.1595 194.181 20.838 194.409 21.339 194.864C21.8401 195.319 22.0906 195.935 22.0906 196.712ZM20.7691 200.866C20.7691 200.415 20.6334 200.052 20.362 199.776C20.0948 199.496 19.7399 199.356 19.2973 199.356C18.8547 199.356 18.4998 199.494 18.2326 199.77C17.9695 200.045 17.838 200.411 17.838 200.866C17.838 201.313 17.9674 201.67 18.2263 201.938C18.4894 202.205 18.8505 202.339 19.3098 202.339C19.7691 202.339 20.1261 202.209 20.3808 201.95C20.6397 201.691 20.7691 201.33 20.7691 200.866ZM20.5749 196.769C20.5749 196.372 20.4601 196.046 20.2305 195.791C20.0008 195.532 19.6919 195.403 19.3035 195.403C18.9152 195.403 18.6084 195.526 18.3829 195.773C18.1574 196.015 18.0447 196.347 18.0447 196.769C18.0447 197.186 18.1574 197.518 18.3829 197.765C18.6125 198.011 18.9215 198.135 19.3098 198.135C19.6981 198.135 20.005 198.011 20.2305 197.765C20.4601 197.518 20.5749 197.186 20.5749 196.769Z" fill="#4D4D4D"/>
<path d="M67.7374 242.201L64.0923 250.477H62.4952L66.134 242.576H61.418V241.355H67.7374V242.201Z" fill="#4D4D4D"/>
<path d="M55.8581 139.157H49.7345V138.11L52.7681 134.795C53.206 134.307 53.5166 133.899 53.7001 133.574C53.8878 133.243 53.9816 132.913 53.9816 132.583C53.9816 132.149 53.8586 131.798 53.6126 131.531C53.3707 131.263 53.0434 131.13 52.6305 131.13C52.1385 131.13 51.7569 131.28 51.4859 131.581C51.2148 131.882 51.0793 132.293 51.0793 132.815H49.5593C49.5593 132.26 49.6844 131.76 49.9346 131.318C50.189 130.871 50.5497 130.524 51.0167 130.277C51.488 130.031 52.0301 129.908 52.643 129.908C53.5271 129.908 54.2235 130.131 54.7322 130.578C55.2451 131.021 55.5016 131.635 55.5016 132.42C55.5016 132.876 55.3723 133.354 55.1137 133.856C54.8594 134.353 54.4403 134.919 53.8565 135.554L51.6297 137.941H55.8581V139.157Z" fill="#4D4D4D"/>
<path d="M61.131 139.157H59.6173V131.831L57.3843 132.596V131.311L60.9371 130.002H61.131V139.157Z" fill="#4D4D4D"/>
</svg>
