<svg width="10" height="13" viewBox="0 0 10 13" fill="none" xmlns="http://www.w3.org/2000/svg">
<path d="M2.94716 0.0130245C3.62515 -0.0797438 4.19492 0.335082 4.46467 0.874256L5.1282 2.20097C5.49631 2.9372 5.28478 3.80106 4.72686 4.34451C4.39724 4.66525 4.06597 5.03172 3.87385 5.3551C3.86113 5.37814 3.85715 5.40501 3.86267 5.43076C4.04031 6.39331 4.69265 7.34435 5.27459 8.0263C5.30386 8.05881 5.34205 8.08198 5.38441 8.09292C5.42677 8.10386 5.47141 8.10208 5.51276 8.08781L6.8204 7.67924C7.17264 7.56914 7.55089 7.57477 7.8997 7.6953C8.24851 7.81583 8.54954 8.04493 8.75866 8.34901L9.70509 9.7254C9.96169 10.0991 10.0916 10.6057 9.89491 11.0929C9.71924 11.5281 9.37942 12.1558 8.76129 12.5733C8.11981 13.0062 7.24114 13.1707 6.09141 12.7766C4.8068 12.3357 3.59324 11.2304 2.58694 9.81686C1.57471 8.39441 0.741443 6.61767 0.236152 4.76493C-0.241177 3.01549 0.0469967 1.8378 0.725324 1.07953C1.37964 0.347911 2.31719 0.0995425 2.94716 0.0130245ZM3.72911 1.24204C3.57877 0.941694 3.31066 0.793331 3.059 0.827872C2.49943 0.90485 1.79874 1.11309 1.33852 1.62792C0.902307 2.11577 0.600317 2.97503 1.02929 4.54847C1.51122 6.31436 2.30469 8.00195 3.25704 9.33986C4.21532 10.6863 5.30419 11.637 6.3582 11.9986C7.2974 12.3206 7.90105 12.1614 8.30107 11.8916C8.72412 11.6058 8.98433 11.1515 9.13237 10.785C9.20013 10.6172 9.17085 10.4001 9.02743 10.1915L8.08099 8.81515C7.97148 8.65586 7.81383 8.53584 7.63113 8.47267C7.44844 8.40951 7.25032 8.40652 7.0658 8.46415L5.75817 8.87272C5.36736 8.99477 4.9272 8.88588 4.64922 8.56021C4.0436 7.85063 3.27185 6.76241 3.05374 5.57978C3.01205 5.35814 3.05226 5.1289 3.16691 4.93468C3.41626 4.51558 3.81102 4.08825 4.15282 3.75534C4.48672 3.43032 4.58146 2.94674 4.39263 2.56876L3.72911 1.24204Z" fill="white"/>
</svg>
