<svg width="19" height="19" viewBox="0 0 19 19" fill="none" xmlns="http://www.w3.org/2000/svg">
<path d="M9.55867 5.33588C7.23898 5.33588 5.39458 7.18028 5.39458 9.49997C5.39458 11.8197 7.23898 13.6641 9.55867 13.6641C11.8784 13.6641 13.7228 11.8197 13.7228 9.49997C13.7228 7.18028 11.8784 5.33588 9.55867 5.33588ZM9.55867 12.3659C7.95328 12.3659 6.69278 11.1054 6.69278 9.49997C6.69278 7.89459 7.95328 6.63408 9.55867 6.63408C11.1641 6.63408 12.4246 7.89459 12.4246 9.49997C12.4246 11.1054 11.1641 12.3659 9.55867 12.3659Z" fill="#606B85" stroke="#606B85" stroke-width="0.12"/>
<path d="M17.0543 4.66756L17.0543 4.66758L17.0552 4.66586C17.2425 4.2913 17.1808 3.79293 16.8676 3.47975L15.4616 2.07375C15.1484 1.76058 14.6501 1.69887 14.2755 1.88615L14.2755 1.88613L14.2738 1.88703L12.7767 2.69318L11.953 2.36371L11.4349 0.751716L11.4347 0.751071C11.3098 0.376403 10.9359 0.0633934 10.4959 0.0633934H8.50406C8.0654 0.0633934 7.68754 0.375805 7.62205 0.81531L7.10812 2.4142C6.77701 2.47401 6.49589 2.58587 6.21781 2.74882L4.72615 1.94562L4.72616 1.94559L4.72445 1.94473C4.34988 1.75745 3.85151 1.81916 3.53833 2.13234L2.13234 3.53833C1.81916 3.85151 1.75745 4.34988 1.94473 4.72445L1.94473 4.72445L1.94519 4.72534L2.69342 6.16424C2.63806 6.30428 2.58279 6.45626 2.5279 6.6072L2.5277 6.60777C2.47272 6.75894 2.41813 6.90906 2.36364 7.04696L0.751716 7.56507L0.75107 7.56529C0.376403 7.69018 0.0633934 8.06403 0.0633934 8.50406V10.4959C0.0633934 10.9374 0.378116 11.311 0.811287 11.4352L2.4223 11.953L2.75176 12.7767L1.94562 14.2738L1.94559 14.2738L1.94473 14.2755C1.75745 14.6501 1.81916 15.1484 2.13234 15.4616L3.53833 16.8676C3.85151 17.1808 4.34988 17.2425 4.72445 17.0552L4.72446 17.0552L4.72615 17.0543L6.22327 16.2482L7.04657 16.5775L7.56487 18.2476L7.56529 18.2489C7.69018 18.6235 8.06403 18.9365 8.50406 18.9365H10.4959C10.9359 18.9365 11.3098 18.6235 11.4347 18.2489L11.4351 18.2476L11.9534 16.5775L12.7767 16.2482L14.2738 17.0543L14.2738 17.0543L14.2755 17.0552C14.6501 17.2425 15.1484 17.1808 15.4616 16.8676L16.8676 15.4616C17.1808 15.1484 17.2425 14.6501 17.0552 14.2755L17.0552 14.2755L17.0543 14.2738L16.2482 12.7767L16.5775 11.9534L18.2476 11.4351L18.2489 11.4347C18.6235 11.3098 18.9365 10.9359 18.9365 10.4959V8.50406C18.9365 8.0671 18.6264 7.63176 18.1887 7.50618L16.5776 6.98835L16.2482 6.16469L17.0543 4.66756ZM15.5741 10.904L15.538 10.9151L15.5306 10.9521L15.4733 11.2386L14.9503 12.4588L14.7768 12.7481L14.7582 12.7791L14.7755 12.8109L15.8073 14.7026L14.7026 15.8073L12.8109 14.7755L12.7791 14.7582L12.7481 14.7768L12.4563 14.9519C12.4561 14.952 12.4559 14.9521 12.4557 14.9522C12.0506 15.1836 11.6462 15.3569 11.2425 15.4725L10.9521 15.5306L10.9151 15.538L10.904 15.5741L10.2733 17.6383H8.72663L8.0959 15.5741L8.08486 15.538L8.0478 15.5306L7.76135 15.4733L6.5411 14.9503L6.25186 14.7768L6.22081 14.7582L6.18902 14.7755L4.29733 15.8073L3.19262 14.7026L4.22445 12.8109L4.24179 12.7791L4.22316 12.7481L4.04809 12.4563C4.04798 12.4561 4.04787 12.4559 4.04776 12.4557C3.81631 12.0506 3.64302 11.6462 3.52744 11.2425L3.46936 10.9521L3.46195 10.9151L3.42581 10.904L1.3616 10.2733V8.72715L3.30801 8.15467L3.33749 8.146L3.3489 8.11747L3.46607 7.82456L3.46661 7.82477L3.4687 7.8164C3.5842 7.35439 3.75743 6.94985 3.98917 6.5442L4.16457 6.25187L4.1827 6.22166L4.16656 6.19034L3.1918 4.29815L4.29687 3.19308L6.12971 4.22405L6.16176 4.24207L6.19328 4.22316L6.48561 4.04776C6.89126 3.81601 7.29581 3.64279 7.75782 3.52728L7.75796 3.52785L7.76597 3.52465L8.05889 3.40748L8.08675 3.39634L8.09575 3.36771L8.72624 1.3616H10.2737L10.9042 3.36771L10.9132 3.39634L10.9411 3.40748L11.234 3.52465L11.2338 3.52496L11.2401 3.52674C11.6446 3.64231 12.0498 3.81585 12.4557 4.04776C12.4559 4.04787 12.4561 4.04798 12.4563 4.04809L12.7481 4.22316L12.7791 4.24179L12.8109 4.22445L14.7026 3.19262L15.8073 4.29733L14.7755 6.18902L14.7582 6.22081L14.7768 6.25186L14.9519 6.54362C14.952 6.54382 14.9521 6.54401 14.9522 6.54421C15.1836 6.94932 15.3569 7.35371 15.4725 7.7574L15.5306 8.0478L15.538 8.08486L15.5741 8.0959L17.6383 8.72663V10.2733L15.5741 10.904Z" fill="#606B85" stroke="#606B85" stroke-width="0.12"/>
</svg>
