<svg width="20" height="20" viewBox="0 0 20 20" fill="none" xmlns="http://www.w3.org/2000/svg">
<path d="M10 0C7.34784 0 4.8043 1.05357 2.92893 2.92893C1.05357 4.8043 0 7.34784 0 10C0 12.6522 1.05357 15.1957 2.92893 17.0711C4.8043 18.9464 7.34784 20 10 20C12.6522 20 15.1957 18.9464 17.0711 17.0711C18.9464 15.1957 20 12.6522 20 10C20 7.34784 18.9464 4.8043 17.0711 2.92893C15.1957 1.05357 12.6522 0 10 0ZM15.6587 13.3333C15.8373 12.4907 15.9507 11.596 15.9867 10.6667H18.6413C18.5726 11.584 18.357 12.4844 18.0027 13.3333H15.6587ZM4.34133 6.66667C4.15665 7.54466 4.04692 8.43676 4.01333 9.33333H1.35867C1.4274 8.41598 1.64304 7.51563 1.99733 6.66667H4.34133ZM14.292 6.66667C14.492 7.52 14.6133 8.41333 14.652 9.33333H10.6667V6.66667H14.292ZM10.6667 5.33333V1.43067C10.9707 1.51867 11.272 1.668 11.5667 1.876C12.12 2.26667 12.6507 2.868 13.0987 3.61467C13.4093 4.132 13.6773 4.70667 13.9 5.33333H10.6653H10.6667ZM6.90133 3.61467C7.34933 2.86667 7.88 2.26533 8.43333 1.876C8.72933 1.668 9.02933 1.51867 9.33333 1.43067V5.33333H6.09867C6.30912 4.7357 6.57751 4.16007 6.9 3.61467H6.90133ZM9.33333 6.66667V9.33333H5.348C5.38667 8.41333 5.508 7.52 5.708 6.66667H9.33333ZM1.99733 13.3333C1.64304 12.4844 1.4274 11.584 1.35867 10.6667H4.01333C4.05067 11.596 4.16267 12.4907 4.34133 13.3333H1.99733ZM5.348 10.6667H9.33333V13.3333H5.708C5.508 12.48 5.38667 11.5867 5.348 10.6667ZM9.33333 14.6667V18.5693C9.01063 18.472 8.70644 18.3215 8.43333 18.124C7.88 17.7333 7.34933 17.132 6.90133 16.3853C6.57786 15.8403 6.309 15.2646 6.09867 14.6667H9.33333ZM13.1 16.3853C12.652 17.1333 12.1213 17.7347 11.568 18.124C11.2947 18.3213 10.9906 18.4718 10.668 18.5693V14.6667H13.9027C13.6787 15.2933 13.4107 15.868 13.1 16.3853ZM10.6667 13.3333V10.6667H14.652C14.6133 11.5867 14.492 12.48 14.292 13.3333H10.6667ZM15.9867 9.33333C15.9524 8.43681 15.8427 7.54477 15.6587 6.66667H18.0027C18.3587 7.51867 18.572 8.412 18.6413 9.33333H15.9867ZM17.3053 5.33333H15.308C14.92 4.10933 14.384 3.036 13.7387 2.17867C14.6259 2.60263 15.434 3.17535 16.128 3.872C16.576 4.32 16.9693 4.808 17.3053 5.33333ZM3.872 3.872C4.56649 3.17595 5.37449 2.60331 6.26133 2.17867C5.61733 3.036 5.08 4.10933 4.692 5.33333H2.69467C3.03067 4.808 3.424 4.31867 3.872 3.872ZM2.69467 14.6667H4.692C5.08 15.8907 5.616 16.964 6.26133 17.8213C5.3741 17.3974 4.56598 16.8247 3.872 16.128C3.42786 15.6849 3.0331 15.1949 2.69467 14.6667ZM16.128 16.128C15.4335 16.8241 14.6255 17.3967 13.7387 17.8213C14.3827 16.964 14.92 15.8907 15.308 14.6667H17.3053C16.9672 15.1952 16.5724 15.6852 16.128 16.128Z" fill="#606B85"/>
</svg>
