<svg width="17" height="14" viewBox="0 0 17 14" fill="none" xmlns="http://www.w3.org/2000/svg">
<path d="M0 1.45833C0 1.8451 0.153645 2.21603 0.427134 2.48952C0.700624 2.76301 1.07156 2.91666 1.45833 2.91666C1.8451 2.91666 2.21603 2.76301 2.48952 2.48952C2.76301 2.21603 2.91666 1.8451 2.91666 1.45833C2.91666 1.07156 2.76301 0.700624 2.48952 0.427134C2.21603 0.153645 1.8451 0 1.45833 0C1.07156 0 0.700624 0.153645 0.427134 0.427134C0.153645 0.700624 0 1.07156 0 1.45833Z" fill="#7DA6E4"/>
<path d="M0 6.99997C0 7.38675 0.153645 7.75768 0.427134 8.03117C0.700624 8.30466 1.07156 8.4583 1.45833 8.4583C1.8451 8.4583 2.21603 8.30466 2.48952 8.03117C2.76301 7.75768 2.91666 7.38675 2.91666 6.99997C2.91666 6.6132 2.76301 6.24227 2.48952 5.96878C2.21603 5.69529 1.8451 5.54165 1.45833 5.54165C1.07156 5.54165 0.700624 5.69529 0.427134 5.96878C0.153645 6.24227 0 6.6132 0 6.99997Z" fill="#7DA6E4"/>
<path d="M0 12.5416C0 12.9284 0.153645 13.2993 0.427134 13.5728C0.700624 13.8463 1.07156 13.9999 1.45833 13.9999C1.8451 13.9999 2.21603 13.8463 2.48952 13.5728C2.76301 13.2993 2.91666 12.9284 2.91666 12.5416C2.91666 12.1548 2.76301 11.7839 2.48952 11.5104C2.21603 11.2369 1.8451 11.0833 1.45833 11.0833C1.07156 11.0833 0.700624 11.2369 0.427134 11.5104C0.153645 11.7839 0 12.1548 0 12.5416Z" fill="#7DA6E4"/>
<path fill-rule="evenodd" clip-rule="evenodd" d="M5.10287 1.45833C5.10287 1.05562 5.42932 0.729164 5.83203 0.729164H15.6041C16.0069 0.729164 16.3333 1.05562 16.3333 1.45833C16.3333 1.86103 16.0069 2.18749 15.6041 2.18749H5.83203C5.42932 2.18749 5.10287 1.86103 5.10287 1.45833Z" fill="#7DA6E4"/>
<path fill-rule="evenodd" clip-rule="evenodd" d="M5.10287 6.99997C5.10287 6.59727 5.42932 6.27081 5.83203 6.27081H15.6041C16.0069 6.27081 16.3333 6.59727 16.3333 6.99997C16.3333 7.40268 16.0069 7.72914 15.6041 7.72914H5.83203C5.42932 7.72914 5.10287 7.40268 5.10287 6.99997Z" fill="#7DA6E4"/>
<path fill-rule="evenodd" clip-rule="evenodd" d="M5.10287 12.5416C5.10287 12.1389 5.42932 11.8125 5.83203 11.8125H15.6041C16.0069 11.8125 16.3333 12.1389 16.3333 12.5416C16.3333 12.9443 16.0069 13.2708 15.6041 13.2708H5.83203C5.42932 13.2708 5.10287 12.9443 5.10287 12.5416Z" fill="#7DA6E4"/>
</svg>
