<svg width="11" height="11" viewBox="0 0 11 11" fill="none" xmlns="http://www.w3.org/2000/svg">
<path d="M2.75 6.1875C3.1297 6.1875 3.4375 5.8797 3.4375 5.5C3.4375 5.1203 3.1297 4.8125 2.75 4.8125C2.3703 4.8125 2.0625 5.1203 2.0625 5.5C2.0625 5.8797 2.3703 6.1875 2.75 6.1875Z" fill="#8891AA"/>
<path d="M5.5 6.1875C5.8797 6.1875 6.1875 5.8797 6.1875 5.5C6.1875 5.1203 5.8797 4.8125 5.5 4.8125C5.1203 4.8125 4.8125 5.1203 4.8125 5.5C4.8125 5.8797 5.1203 6.1875 5.5 6.1875Z" fill="#8891AA"/>
<path d="M8.25 6.1875C8.6297 6.1875 8.9375 5.8797 8.9375 5.5C8.9375 5.1203 8.6297 4.8125 8.25 4.8125C7.8703 4.8125 7.5625 5.1203 7.5625 5.5C7.5625 5.8797 7.8703 6.1875 8.25 6.1875Z" fill="#8891AA"/>
</svg>
