<svg width="23" height="53" viewBox="0 0 23 53" fill="none" xmlns="http://www.w3.org/2000/svg">
<path d="M7.65976 8.42752H9.19527H7.65976ZM13.8018 14.5696H15.3373H13.8018ZM15.3373 7.65976L7.65976 15.3373L15.3373 7.65976ZM10.4252 1.19523L8.69162 2.92576C8.4075 3.21038 8.022 3.37055 7.61983 3.37106H4.88968C4.48733 3.37106 4.10145 3.53089 3.81694 3.8154C3.53243 4.09991 3.37259 4.48579 3.37259 4.88815V7.6183C3.37209 8.02046 3.21192 8.40597 2.92729 8.69009L1.19523 10.4268C0.910832 10.7113 0.751068 11.0971 0.751068 11.4993C0.751068 11.9016 0.910832 12.2874 1.19523 12.5719L2.93036 14.3055C3.07109 14.4462 3.18271 14.6133 3.25885 14.7972C3.33499 14.9811 3.37416 15.1782 3.37413 15.3773V18.1074C3.37413 18.9458 4.05283 19.6245 4.89122 19.6245H7.62137C8.02367 19.6245 8.40909 19.7842 8.69316 20.0698L10.4283 21.8034C10.7128 22.0878 11.0986 22.2476 11.5009 22.2476C11.9031 22.2476 12.2889 22.0878 12.5734 21.8034L14.307 20.0683C14.5914 19.7842 14.9769 19.6246 15.3788 19.6245H18.109C18.5113 19.6245 18.8972 19.4647 19.1817 19.1802C19.4662 18.8957 19.626 18.5098 19.626 18.1074V15.3773C19.626 14.975 19.7857 14.5895 20.0713 14.3055L21.8049 12.5703C22.0893 12.2858 22.2491 11.9 22.2491 11.4978C22.2491 11.0955 22.0893 10.7097 21.8049 10.4252L20.0698 8.69162C19.7857 8.40725 19.6261 8.02178 19.626 7.61983V4.88968C19.626 4.48733 19.4662 4.10145 19.1817 3.81694C18.8972 3.53243 18.5113 3.37259 18.109 3.37259H15.3788C14.9766 3.37209 14.5911 3.21192 14.307 2.92729L12.5703 1.19523C12.2858 0.910832 11.9 0.751068 11.4978 0.751068C11.0955 0.751068 10.7097 0.910832 10.4252 1.19523V1.19523Z" stroke="#7DA6E4" stroke-width="1.5"/>
<path d="M13.9872 47.4708C14.3674 47.4708 14.6757 47.1626 14.6757 46.7824C14.6757 46.4021 14.3674 46.0939 13.9872 46.0939C13.6069 46.0939 13.2987 46.4021 13.2987 46.7824C13.2987 47.1626 13.6069 47.4708 13.9872 47.4708Z" fill="#8891AA"/>
<path d="M16.7411 47.4708C17.1213 47.4708 17.4296 47.1626 17.4296 46.7824C17.4296 46.4021 17.1213 46.0939 16.7411 46.0939C16.3609 46.0939 16.0526 46.4021 16.0526 46.7824C16.0526 47.1626 16.3609 47.4708 16.7411 47.4708Z" fill="#8891AA"/>
<path d="M19.495 47.4708C19.8753 47.4708 20.1835 47.1626 20.1835 46.7824C20.1835 46.4021 19.8753 46.0939 19.495 46.0939C19.1148 46.0939 18.8065 46.4021 18.8065 46.7824C18.8065 47.1626 19.1148 47.4708 19.495 47.4708Z" fill="#8891AA"/>
</svg>
