<svg width="13" height="15" viewBox="0 0 13 15" fill="none" xmlns="http://www.w3.org/2000/svg">
<path fill-rule="evenodd" clip-rule="evenodd" d="M6.20177 0C8.15197 0 9.73292 1.58095 9.73292 3.53115C9.73292 5.48135 8.15197 7.0623 6.20163 7.0623C4.25243 7.06007 2.67285 5.48049 2.67062 3.53115C2.67062 1.58095 4.25157 0 6.20177 0ZM6.20177 1.09416C4.85652 1.09563 3.76625 2.18591 3.76478 3.53115C3.76478 4.87706 4.85586 5.96814 6.20177 5.96814C7.54768 5.96814 8.63876 4.87706 8.63876 3.53115C8.63876 2.18524 7.54768 1.09416 6.20177 1.09416ZM12.7151 14.4288C12.7111 10.9192 9.86714 8.0752 6.3577 8.0712L6.12446 8.07565C2.72297 8.20193 0.00391495 10.9972 0 14.4286C0 14.7442 0.255742 15 0.571215 15C0.886689 15 1.14243 14.7442 1.14243 14.4288C1.14243 11.5485 3.47732 9.21363 6.35755 9.21363C9.23779 9.21363 11.5727 11.5485 11.5727 14.4288C11.5727 14.7442 11.8284 15 12.1439 15C12.4594 15 12.7151 14.7442 12.7151 14.4288Z" fill="#121C2D"/>
</svg>
