<svg width="31" height="22" viewBox="0 0 31 22" fill="none" xmlns="http://www.w3.org/2000/svg">
<path d="M20.9 15.4C20.6083 15.4 20.3285 15.5159 20.1222 15.7222C19.9159 15.9285 19.8 16.2083 19.8 16.5C19.8 16.7917 19.9159 17.0715 20.1222 17.2778C20.3285 17.4841 20.6083 17.6 20.9 17.6H25.3C25.5917 17.6 25.8715 17.4841 26.0778 17.2778C26.2841 17.0715 26.4 16.7917 26.4 16.5C26.4 16.2083 26.2841 15.9285 26.0778 15.7222C25.8715 15.5159 25.5917 15.4 25.3 15.4H20.9ZM0 4.4C0 3.23305 0.46357 2.11389 1.28873 1.28873C2.11389 0.46357 3.23305 0 4.4 0H26.4C27.567 0 28.6861 0.46357 29.5113 1.28873C30.3364 2.11389 30.8 3.23305 30.8 4.4V17.6C30.8 18.767 30.3364 19.8861 29.5113 20.7113C28.6861 21.5364 27.567 22 26.4 22H4.4C3.23305 22 2.11389 21.5364 1.28873 20.7113C0.46357 19.8861 0 18.767 0 17.6V4.4ZM28.6 4.4C28.6 3.81652 28.3682 3.25695 27.9556 2.84437C27.5431 2.43179 26.9835 2.2 26.4 2.2H4.4C3.81652 2.2 3.25694 2.43179 2.84437 2.84437C2.43178 3.25695 2.2 3.81652 2.2 4.4V6.6H28.6V4.4ZM2.2 17.6C2.2 18.1835 2.43178 18.7431 2.84437 19.1556C3.25694 19.5682 3.81652 19.8 4.4 19.8H26.4C26.9835 19.8 27.5431 19.5682 27.9556 19.1556C28.3682 18.7431 28.6 18.1835 28.6 17.6V8.8H2.2V17.6Z" fill="#4D4D4D"/>
</svg>
