<svg width="35" height="35" viewBox="0 0 35 35" fill="none" xmlns="http://www.w3.org/2000/svg">
<path d="M18.6521 30.625L4.375 16.3479V19.2646C4.375 20.0375 4.68125 20.7812 5.23542 21.3208L16.5958 32.6812C17.7333 33.8187 19.5854 33.8187 20.7229 32.6812L29.7792 23.625C30.9167 22.4875 30.9167 20.6354 29.7792 19.4979L18.6521 30.625Z" fill="#4D4D4D"/>
<path d="M16.5958 25.3896C17.1646 25.9583 17.9083 26.25 18.6521 26.25C19.3958 26.25 20.1396 25.9583 20.7083 25.3896L29.7646 16.3333C30.9021 15.1958 30.9021 13.3438 29.7646 12.2063L18.4042 0.845833C17.8646 0.30625 17.1208 0 16.3479 0H7.29167C5.6875 0 4.375 1.3125 4.375 2.91667V11.9729C4.375 12.7458 4.68125 13.4896 5.23542 14.0292L16.5958 25.3896ZM7.29167 2.91667H16.3479L27.7083 14.2771L18.6521 23.3333L7.29167 11.9729V2.91667Z" fill="#4D4D4D"/>
<path d="M10.5729 8.02083C11.5797 8.02083 12.3958 7.20469 12.3958 6.19792C12.3958 5.19115 11.5797 4.375 10.5729 4.375C9.56615 4.375 8.75 5.19115 8.75 6.19792C8.75 7.20469 9.56615 8.02083 10.5729 8.02083Z" fill="#4D4D4D"/>
</svg>
