<svg width="12" height="12" viewBox="0 0 12 12" fill="none" xmlns="http://www.w3.org/2000/svg">
<path d="M2.625 3C2.41789 3 2.25 3.16789 2.25 3.375C2.25 3.58211 2.41789 3.75 2.625 3.75H7.125C7.33211 3.75 7.5 3.58211 7.5 3.375C7.5 3.16789 7.33211 3 7.125 3H2.625Z" fill="white"/>
<path d="M2.25 6C2.25 5.79289 2.41789 5.625 2.625 5.625H9.375C9.58211 5.625 9.75 5.79289 9.75 6C9.75 6.20711 9.58211 6.375 9.375 6.375H2.625C2.41789 6.375 2.25 6.20711 2.25 6Z" fill="white"/>
<path d="M2.625 8.25C2.41789 8.25 2.25 8.41789 2.25 8.625C2.25 8.83211 2.41789 9 2.625 9H8.625C8.83211 9 9 8.83211 9 8.625C9 8.41789 8.83211 8.25 8.625 8.25H2.625Z" fill="white"/>
<path fill-rule="evenodd" clip-rule="evenodd" d="M0 1.125C0 0.50368 0.50368 0 1.125 0H10.875C11.4963 0 12 0.50368 12 1.125V10.875C12 11.4963 11.4963 12 10.875 12H1.125C0.50368 12 0 11.4963 0 10.875V1.125ZM1.125 0.75H10.875C11.0821 0.75 11.25 0.917893 11.25 1.125V10.875C11.25 11.0821 11.0821 11.25 10.875 11.25H1.125C0.917893 11.25 0.75 11.0821 0.75 10.875V1.125C0.75 0.917893 0.917893 0.75 1.125 0.75Z" fill="white"/>
</svg>
