<svg width="27" height="40" viewBox="0 0 27 40" fill="none" xmlns="http://www.w3.org/2000/svg">
<path fill-rule="evenodd" clip-rule="evenodd" d="M13.1989 9.33317C10.9898 9.33317 9.19889 11.124 9.19889 13.3332C9.19889 15.5423 10.9898 17.3332 13.1989 17.3332C15.408 17.3332 17.1989 15.5423 17.1989 13.3332C17.1989 11.124 15.408 9.33317 13.1989 9.33317ZM6.53223 13.3332C6.53223 9.65127 9.51699 6.6665 13.1989 6.6665C16.8808 6.6665 19.8656 9.65127 19.8656 13.3332C19.8656 17.0151 16.8808 19.9998 13.1989 19.9998C9.51699 19.9998 6.53223 17.0151 6.53223 13.3332Z" fill="#4D4D4D"/>
<path fill-rule="evenodd" clip-rule="evenodd" d="M13.1998 2.66667C6.10145 2.66667 0.157312 9.7384 3.75862 18.1414C5.73049 22.7425 8.36984 27.6938 10.5272 31.5106C11.5834 33.3792 12.52 34.9688 13.1998 36.1029C13.8796 34.9688 14.8162 33.3792 15.8723 31.5106C18.0297 27.6938 20.669 22.7425 22.6409 18.1414C26.2422 9.7384 20.2981 2.66667 13.1998 2.66667ZM13.1998 38.6667C12.0691 39.3733 12.069 39.3732 12.0689 39.3731L12.0485 39.3402L11.9904 39.2467C11.9396 39.1647 11.8651 39.044 11.769 38.8873C11.5768 38.574 11.2985 38.1171 10.9523 37.5402C10.26 36.3864 9.29573 34.7513 8.20567 32.8227C6.02968 28.9729 3.33569 23.9242 1.30756 19.1919C-3.09113 8.92827 4.29806 0 13.1998 0C22.1015 0 29.4906 8.92827 25.092 19.1919C23.0638 23.9242 20.3698 28.9729 18.1938 32.8227C17.1038 34.7513 16.1395 36.3864 15.4472 37.5402C15.1011 38.1171 14.8227 38.574 14.6306 38.8873C14.5345 39.044 14.4599 39.1647 14.4091 39.2467L14.3511 39.3402L14.3309 39.3726C14.3308 39.3727 14.3304 39.3733 13.1998 38.6667ZM13.1998 38.6667L14.3309 39.3726C14.0872 39.7624 13.6595 40 13.1998 40C12.74 40 12.3126 39.7629 12.0689 39.3731L13.1998 38.6667Z" fill="#4D4D4D"/>
</svg>
