<svg width="10" height="14" viewBox="0 0 10 14" fill="none" xmlns="http://www.w3.org/2000/svg">
<path fill-rule="evenodd" clip-rule="evenodd" d="M4.61965 3.26668C3.84645 3.26668 3.21965 3.89348 3.21965 4.66668C3.21965 5.43987 3.84645 6.06667 4.61965 6.06667C5.39285 6.06667 6.01965 5.43987 6.01965 4.66668C6.01965 3.89348 5.39285 3.26668 4.61965 3.26668ZM2.28632 4.66668C2.28632 3.37801 3.33099 2.33334 4.61965 2.33334C5.90831 2.33334 6.95298 3.37801 6.95298 4.66668C6.95298 5.95534 5.90831 7.00001 4.61965 7.00001C3.33099 7.00001 2.28632 5.95534 2.28632 4.66668Z" fill="#8891AA"/>
<path fill-rule="evenodd" clip-rule="evenodd" d="M4.61991 0.933333C2.13551 0.933333 0.0550592 3.40844 1.31551 6.3495C2.00567 7.95986 2.92944 9.69281 3.68451 11.0287C4.05417 11.6827 4.38198 12.2391 4.61991 12.636C4.85784 12.2391 5.18565 11.6827 5.55531 11.0287C6.31038 9.69281 7.23415 7.95986 7.92431 6.3495C9.18476 3.40844 7.10432 0.933333 4.61991 0.933333ZM4.61991 13.5333C4.22418 13.7807 4.22416 13.7806 4.22412 13.7806L4.21696 13.7691L4.19664 13.7363C4.17887 13.7076 4.15277 13.6654 4.11913 13.6105C4.05187 13.5009 3.95445 13.341 3.83329 13.139C3.59101 12.7352 3.2535 12.1629 2.87198 11.488C2.11039 10.1405 1.16749 8.37346 0.457647 6.71716C-1.0819 3.12489 1.50432 0 4.61991 0C7.7355 0 10.3217 3.12489 8.78218 6.71716C8.07233 8.37346 7.12944 10.1405 6.36784 11.488C5.98632 12.1629 5.64881 12.7352 5.40653 13.139C5.28537 13.341 5.18796 13.5009 5.12069 13.6105C5.08705 13.6654 5.06095 13.7076 5.04318 13.7363L5.02287 13.7691L5.01581 13.7804C5.01578 13.7804 5.01564 13.7807 4.61991 13.5333ZM4.61991 13.5333L5.01581 13.7804C4.93053 13.9168 4.78081 14 4.61991 14C4.45901 14 4.3094 13.917 4.22412 13.7806L4.61991 13.5333Z" fill="#8891AA"/>
</svg>
