<svg width="16" height="16" viewBox="0 0 16 16" fill="none" xmlns="http://www.w3.org/2000/svg">
<path d="M14.4467 12.1134L10.9134 8.58008H10.2534L8.56006 10.2734V10.9334L12.0934 14.4667C12.3534 14.7267 12.7734 14.7267 13.0334 14.4667L14.4467 13.0534C14.5085 12.9917 14.5576 12.9185 14.591 12.8378C14.6245 12.7572 14.6417 12.6707 14.6417 12.5834C14.6417 12.4961 14.6245 12.4096 14.591 12.329C14.5576 12.2483 14.5085 12.1751 14.4467 12.1134ZM12.5601 13.0601L9.73339 10.2334L10.2067 9.76008L13.0334 12.5867L12.5601 13.0601Z" fill="#8891AA"/>
<path d="M11.5602 6.79341L12.5002 5.85341L13.9135 7.26675C14.288 6.89175 14.4984 6.38342 14.4984 5.85341C14.4984 5.32341 14.288 4.81508 13.9135 4.44008L11.5535 2.08008L10.6135 3.02008V1.14008L10.1468 0.666748L7.78683 3.02675L8.26016 3.50008H10.1468L9.20683 4.44008L9.9135 5.14675L7.98683 7.07341L5.2335 4.32008V3.37341L3.22016 1.36008L1.3335 3.24675L3.3535 5.26675H4.2935L7.04683 8.02008L6.48016 8.58675H5.06683L1.5335 12.1201C1.47169 12.1818 1.42266 12.255 1.38921 12.3357C1.35575 12.4163 1.33853 12.5028 1.33853 12.5901C1.33853 12.6774 1.35575 12.7638 1.38921 12.8445C1.42266 12.9251 1.47169 12.9984 1.5335 13.0601L2.94683 14.4734C3.20683 14.7334 3.62683 14.7334 3.88683 14.4734L7.42016 10.9401V9.52675L10.8535 6.09342L11.5602 6.79341ZM6.24016 10.2267L3.4135 13.0534L2.94016 12.5801L5.76683 9.75342L6.24016 10.2267Z" fill="#8891AA"/>
</svg>
